G75*
%MOIN*%
%OFA0B0*%
%FSLAX25Y25*%
%IPPOS*%
%LPD*%
%AMOC8*
5,1,8,0,0,1.08239X$1,22.5*
%
%ADD10C,0.00000*%
%ADD11R,0.04724X0.04724*%
%ADD12C,0.00500*%
%ADD13R,0.05906X0.05906*%
%ADD14OC8,0.05906*%
%ADD15R,0.03937X0.05512*%
%ADD16R,0.06299X0.07098*%
%ADD17R,0.07098X0.06299*%
%ADD18C,0.06000*%
%ADD19OC8,0.06000*%
%ADD20C,0.04724*%
%ADD21R,0.01969X0.09843*%
%ADD22R,0.07874X0.09843*%
%ADD23C,0.01600*%
%ADD24C,0.03200*%
%ADD25C,0.03762*%
D10*
X0004925Y0005550D02*
X0004300Y0201761D01*
X0148001Y0201761D01*
X0148626Y0005550D01*
X0004925Y0005550D01*
X0010501Y0014300D02*
X0010503Y0014458D01*
X0010509Y0014616D01*
X0010519Y0014774D01*
X0010533Y0014932D01*
X0010551Y0015089D01*
X0010572Y0015246D01*
X0010598Y0015402D01*
X0010628Y0015558D01*
X0010661Y0015713D01*
X0010699Y0015866D01*
X0010740Y0016019D01*
X0010785Y0016171D01*
X0010834Y0016322D01*
X0010887Y0016471D01*
X0010943Y0016619D01*
X0011003Y0016765D01*
X0011067Y0016910D01*
X0011135Y0017053D01*
X0011206Y0017195D01*
X0011280Y0017335D01*
X0011358Y0017472D01*
X0011440Y0017608D01*
X0011524Y0017742D01*
X0011613Y0017873D01*
X0011704Y0018002D01*
X0011799Y0018129D01*
X0011896Y0018254D01*
X0011997Y0018376D01*
X0012101Y0018495D01*
X0012208Y0018612D01*
X0012318Y0018726D01*
X0012431Y0018837D01*
X0012546Y0018946D01*
X0012664Y0019051D01*
X0012785Y0019153D01*
X0012908Y0019253D01*
X0013034Y0019349D01*
X0013162Y0019442D01*
X0013292Y0019532D01*
X0013425Y0019618D01*
X0013560Y0019702D01*
X0013696Y0019781D01*
X0013835Y0019858D01*
X0013976Y0019930D01*
X0014118Y0020000D01*
X0014262Y0020065D01*
X0014408Y0020127D01*
X0014555Y0020185D01*
X0014704Y0020240D01*
X0014854Y0020291D01*
X0015005Y0020338D01*
X0015157Y0020381D01*
X0015310Y0020420D01*
X0015465Y0020456D01*
X0015620Y0020487D01*
X0015776Y0020515D01*
X0015932Y0020539D01*
X0016089Y0020559D01*
X0016247Y0020575D01*
X0016404Y0020587D01*
X0016563Y0020595D01*
X0016721Y0020599D01*
X0016879Y0020599D01*
X0017037Y0020595D01*
X0017196Y0020587D01*
X0017353Y0020575D01*
X0017511Y0020559D01*
X0017668Y0020539D01*
X0017824Y0020515D01*
X0017980Y0020487D01*
X0018135Y0020456D01*
X0018290Y0020420D01*
X0018443Y0020381D01*
X0018595Y0020338D01*
X0018746Y0020291D01*
X0018896Y0020240D01*
X0019045Y0020185D01*
X0019192Y0020127D01*
X0019338Y0020065D01*
X0019482Y0020000D01*
X0019624Y0019930D01*
X0019765Y0019858D01*
X0019904Y0019781D01*
X0020040Y0019702D01*
X0020175Y0019618D01*
X0020308Y0019532D01*
X0020438Y0019442D01*
X0020566Y0019349D01*
X0020692Y0019253D01*
X0020815Y0019153D01*
X0020936Y0019051D01*
X0021054Y0018946D01*
X0021169Y0018837D01*
X0021282Y0018726D01*
X0021392Y0018612D01*
X0021499Y0018495D01*
X0021603Y0018376D01*
X0021704Y0018254D01*
X0021801Y0018129D01*
X0021896Y0018002D01*
X0021987Y0017873D01*
X0022076Y0017742D01*
X0022160Y0017608D01*
X0022242Y0017472D01*
X0022320Y0017335D01*
X0022394Y0017195D01*
X0022465Y0017053D01*
X0022533Y0016910D01*
X0022597Y0016765D01*
X0022657Y0016619D01*
X0022713Y0016471D01*
X0022766Y0016322D01*
X0022815Y0016171D01*
X0022860Y0016019D01*
X0022901Y0015866D01*
X0022939Y0015713D01*
X0022972Y0015558D01*
X0023002Y0015402D01*
X0023028Y0015246D01*
X0023049Y0015089D01*
X0023067Y0014932D01*
X0023081Y0014774D01*
X0023091Y0014616D01*
X0023097Y0014458D01*
X0023099Y0014300D01*
X0023097Y0014142D01*
X0023091Y0013984D01*
X0023081Y0013826D01*
X0023067Y0013668D01*
X0023049Y0013511D01*
X0023028Y0013354D01*
X0023002Y0013198D01*
X0022972Y0013042D01*
X0022939Y0012887D01*
X0022901Y0012734D01*
X0022860Y0012581D01*
X0022815Y0012429D01*
X0022766Y0012278D01*
X0022713Y0012129D01*
X0022657Y0011981D01*
X0022597Y0011835D01*
X0022533Y0011690D01*
X0022465Y0011547D01*
X0022394Y0011405D01*
X0022320Y0011265D01*
X0022242Y0011128D01*
X0022160Y0010992D01*
X0022076Y0010858D01*
X0021987Y0010727D01*
X0021896Y0010598D01*
X0021801Y0010471D01*
X0021704Y0010346D01*
X0021603Y0010224D01*
X0021499Y0010105D01*
X0021392Y0009988D01*
X0021282Y0009874D01*
X0021169Y0009763D01*
X0021054Y0009654D01*
X0020936Y0009549D01*
X0020815Y0009447D01*
X0020692Y0009347D01*
X0020566Y0009251D01*
X0020438Y0009158D01*
X0020308Y0009068D01*
X0020175Y0008982D01*
X0020040Y0008898D01*
X0019904Y0008819D01*
X0019765Y0008742D01*
X0019624Y0008670D01*
X0019482Y0008600D01*
X0019338Y0008535D01*
X0019192Y0008473D01*
X0019045Y0008415D01*
X0018896Y0008360D01*
X0018746Y0008309D01*
X0018595Y0008262D01*
X0018443Y0008219D01*
X0018290Y0008180D01*
X0018135Y0008144D01*
X0017980Y0008113D01*
X0017824Y0008085D01*
X0017668Y0008061D01*
X0017511Y0008041D01*
X0017353Y0008025D01*
X0017196Y0008013D01*
X0017037Y0008005D01*
X0016879Y0008001D01*
X0016721Y0008001D01*
X0016563Y0008005D01*
X0016404Y0008013D01*
X0016247Y0008025D01*
X0016089Y0008041D01*
X0015932Y0008061D01*
X0015776Y0008085D01*
X0015620Y0008113D01*
X0015465Y0008144D01*
X0015310Y0008180D01*
X0015157Y0008219D01*
X0015005Y0008262D01*
X0014854Y0008309D01*
X0014704Y0008360D01*
X0014555Y0008415D01*
X0014408Y0008473D01*
X0014262Y0008535D01*
X0014118Y0008600D01*
X0013976Y0008670D01*
X0013835Y0008742D01*
X0013696Y0008819D01*
X0013560Y0008898D01*
X0013425Y0008982D01*
X0013292Y0009068D01*
X0013162Y0009158D01*
X0013034Y0009251D01*
X0012908Y0009347D01*
X0012785Y0009447D01*
X0012664Y0009549D01*
X0012546Y0009654D01*
X0012431Y0009763D01*
X0012318Y0009874D01*
X0012208Y0009988D01*
X0012101Y0010105D01*
X0011997Y0010224D01*
X0011896Y0010346D01*
X0011799Y0010471D01*
X0011704Y0010598D01*
X0011613Y0010727D01*
X0011524Y0010858D01*
X0011440Y0010992D01*
X0011358Y0011128D01*
X0011280Y0011265D01*
X0011206Y0011405D01*
X0011135Y0011547D01*
X0011067Y0011690D01*
X0011003Y0011835D01*
X0010943Y0011981D01*
X0010887Y0012129D01*
X0010834Y0012278D01*
X0010785Y0012429D01*
X0010740Y0012581D01*
X0010699Y0012734D01*
X0010661Y0012887D01*
X0010628Y0013042D01*
X0010598Y0013198D01*
X0010572Y0013354D01*
X0010551Y0013511D01*
X0010533Y0013668D01*
X0010519Y0013826D01*
X0010509Y0013984D01*
X0010503Y0014142D01*
X0010501Y0014300D01*
X0083867Y0025550D02*
X0083869Y0025634D01*
X0083875Y0025717D01*
X0083885Y0025800D01*
X0083899Y0025883D01*
X0083916Y0025965D01*
X0083938Y0026046D01*
X0083963Y0026125D01*
X0083992Y0026204D01*
X0084025Y0026281D01*
X0084061Y0026356D01*
X0084101Y0026430D01*
X0084144Y0026502D01*
X0084191Y0026571D01*
X0084241Y0026638D01*
X0084294Y0026703D01*
X0084350Y0026765D01*
X0084408Y0026825D01*
X0084470Y0026882D01*
X0084534Y0026935D01*
X0084601Y0026986D01*
X0084670Y0027033D01*
X0084741Y0027078D01*
X0084814Y0027118D01*
X0084889Y0027155D01*
X0084966Y0027189D01*
X0085044Y0027219D01*
X0085123Y0027245D01*
X0085204Y0027268D01*
X0085286Y0027286D01*
X0085368Y0027301D01*
X0085451Y0027312D01*
X0085534Y0027319D01*
X0085618Y0027322D01*
X0085702Y0027321D01*
X0085785Y0027316D01*
X0085869Y0027307D01*
X0085951Y0027294D01*
X0086033Y0027278D01*
X0086114Y0027257D01*
X0086195Y0027233D01*
X0086273Y0027205D01*
X0086351Y0027173D01*
X0086427Y0027137D01*
X0086501Y0027098D01*
X0086573Y0027056D01*
X0086643Y0027010D01*
X0086711Y0026961D01*
X0086776Y0026909D01*
X0086839Y0026854D01*
X0086899Y0026796D01*
X0086957Y0026735D01*
X0087011Y0026671D01*
X0087063Y0026605D01*
X0087111Y0026537D01*
X0087156Y0026466D01*
X0087197Y0026393D01*
X0087236Y0026319D01*
X0087270Y0026243D01*
X0087301Y0026165D01*
X0087328Y0026086D01*
X0087352Y0026005D01*
X0087371Y0025924D01*
X0087387Y0025842D01*
X0087399Y0025759D01*
X0087407Y0025675D01*
X0087411Y0025592D01*
X0087411Y0025508D01*
X0087407Y0025425D01*
X0087399Y0025341D01*
X0087387Y0025258D01*
X0087371Y0025176D01*
X0087352Y0025095D01*
X0087328Y0025014D01*
X0087301Y0024935D01*
X0087270Y0024857D01*
X0087236Y0024781D01*
X0087197Y0024707D01*
X0087156Y0024634D01*
X0087111Y0024563D01*
X0087063Y0024495D01*
X0087011Y0024429D01*
X0086957Y0024365D01*
X0086899Y0024304D01*
X0086839Y0024246D01*
X0086776Y0024191D01*
X0086711Y0024139D01*
X0086643Y0024090D01*
X0086573Y0024044D01*
X0086501Y0024002D01*
X0086427Y0023963D01*
X0086351Y0023927D01*
X0086273Y0023895D01*
X0086195Y0023867D01*
X0086114Y0023843D01*
X0086033Y0023822D01*
X0085951Y0023806D01*
X0085869Y0023793D01*
X0085785Y0023784D01*
X0085702Y0023779D01*
X0085618Y0023778D01*
X0085534Y0023781D01*
X0085451Y0023788D01*
X0085368Y0023799D01*
X0085286Y0023814D01*
X0085204Y0023832D01*
X0085123Y0023855D01*
X0085044Y0023881D01*
X0084966Y0023911D01*
X0084889Y0023945D01*
X0084814Y0023982D01*
X0084741Y0024022D01*
X0084670Y0024067D01*
X0084601Y0024114D01*
X0084534Y0024165D01*
X0084470Y0024218D01*
X0084408Y0024275D01*
X0084350Y0024335D01*
X0084294Y0024397D01*
X0084241Y0024462D01*
X0084191Y0024529D01*
X0084144Y0024598D01*
X0084101Y0024670D01*
X0084061Y0024744D01*
X0084025Y0024819D01*
X0083992Y0024896D01*
X0083963Y0024975D01*
X0083938Y0025054D01*
X0083916Y0025135D01*
X0083899Y0025217D01*
X0083885Y0025300D01*
X0083875Y0025383D01*
X0083869Y0025466D01*
X0083867Y0025550D01*
X0101189Y0025550D02*
X0101191Y0025634D01*
X0101197Y0025717D01*
X0101207Y0025800D01*
X0101221Y0025883D01*
X0101238Y0025965D01*
X0101260Y0026046D01*
X0101285Y0026125D01*
X0101314Y0026204D01*
X0101347Y0026281D01*
X0101383Y0026356D01*
X0101423Y0026430D01*
X0101466Y0026502D01*
X0101513Y0026571D01*
X0101563Y0026638D01*
X0101616Y0026703D01*
X0101672Y0026765D01*
X0101730Y0026825D01*
X0101792Y0026882D01*
X0101856Y0026935D01*
X0101923Y0026986D01*
X0101992Y0027033D01*
X0102063Y0027078D01*
X0102136Y0027118D01*
X0102211Y0027155D01*
X0102288Y0027189D01*
X0102366Y0027219D01*
X0102445Y0027245D01*
X0102526Y0027268D01*
X0102608Y0027286D01*
X0102690Y0027301D01*
X0102773Y0027312D01*
X0102856Y0027319D01*
X0102940Y0027322D01*
X0103024Y0027321D01*
X0103107Y0027316D01*
X0103191Y0027307D01*
X0103273Y0027294D01*
X0103355Y0027278D01*
X0103436Y0027257D01*
X0103517Y0027233D01*
X0103595Y0027205D01*
X0103673Y0027173D01*
X0103749Y0027137D01*
X0103823Y0027098D01*
X0103895Y0027056D01*
X0103965Y0027010D01*
X0104033Y0026961D01*
X0104098Y0026909D01*
X0104161Y0026854D01*
X0104221Y0026796D01*
X0104279Y0026735D01*
X0104333Y0026671D01*
X0104385Y0026605D01*
X0104433Y0026537D01*
X0104478Y0026466D01*
X0104519Y0026393D01*
X0104558Y0026319D01*
X0104592Y0026243D01*
X0104623Y0026165D01*
X0104650Y0026086D01*
X0104674Y0026005D01*
X0104693Y0025924D01*
X0104709Y0025842D01*
X0104721Y0025759D01*
X0104729Y0025675D01*
X0104733Y0025592D01*
X0104733Y0025508D01*
X0104729Y0025425D01*
X0104721Y0025341D01*
X0104709Y0025258D01*
X0104693Y0025176D01*
X0104674Y0025095D01*
X0104650Y0025014D01*
X0104623Y0024935D01*
X0104592Y0024857D01*
X0104558Y0024781D01*
X0104519Y0024707D01*
X0104478Y0024634D01*
X0104433Y0024563D01*
X0104385Y0024495D01*
X0104333Y0024429D01*
X0104279Y0024365D01*
X0104221Y0024304D01*
X0104161Y0024246D01*
X0104098Y0024191D01*
X0104033Y0024139D01*
X0103965Y0024090D01*
X0103895Y0024044D01*
X0103823Y0024002D01*
X0103749Y0023963D01*
X0103673Y0023927D01*
X0103595Y0023895D01*
X0103517Y0023867D01*
X0103436Y0023843D01*
X0103355Y0023822D01*
X0103273Y0023806D01*
X0103191Y0023793D01*
X0103107Y0023784D01*
X0103024Y0023779D01*
X0102940Y0023778D01*
X0102856Y0023781D01*
X0102773Y0023788D01*
X0102690Y0023799D01*
X0102608Y0023814D01*
X0102526Y0023832D01*
X0102445Y0023855D01*
X0102366Y0023881D01*
X0102288Y0023911D01*
X0102211Y0023945D01*
X0102136Y0023982D01*
X0102063Y0024022D01*
X0101992Y0024067D01*
X0101923Y0024114D01*
X0101856Y0024165D01*
X0101792Y0024218D01*
X0101730Y0024275D01*
X0101672Y0024335D01*
X0101616Y0024397D01*
X0101563Y0024462D01*
X0101513Y0024529D01*
X0101466Y0024598D01*
X0101423Y0024670D01*
X0101383Y0024744D01*
X0101347Y0024819D01*
X0101314Y0024896D01*
X0101285Y0024975D01*
X0101260Y0025054D01*
X0101238Y0025135D01*
X0101221Y0025217D01*
X0101207Y0025300D01*
X0101197Y0025383D01*
X0101191Y0025466D01*
X0101189Y0025550D01*
X0128001Y0014300D02*
X0128003Y0014458D01*
X0128009Y0014616D01*
X0128019Y0014774D01*
X0128033Y0014932D01*
X0128051Y0015089D01*
X0128072Y0015246D01*
X0128098Y0015402D01*
X0128128Y0015558D01*
X0128161Y0015713D01*
X0128199Y0015866D01*
X0128240Y0016019D01*
X0128285Y0016171D01*
X0128334Y0016322D01*
X0128387Y0016471D01*
X0128443Y0016619D01*
X0128503Y0016765D01*
X0128567Y0016910D01*
X0128635Y0017053D01*
X0128706Y0017195D01*
X0128780Y0017335D01*
X0128858Y0017472D01*
X0128940Y0017608D01*
X0129024Y0017742D01*
X0129113Y0017873D01*
X0129204Y0018002D01*
X0129299Y0018129D01*
X0129396Y0018254D01*
X0129497Y0018376D01*
X0129601Y0018495D01*
X0129708Y0018612D01*
X0129818Y0018726D01*
X0129931Y0018837D01*
X0130046Y0018946D01*
X0130164Y0019051D01*
X0130285Y0019153D01*
X0130408Y0019253D01*
X0130534Y0019349D01*
X0130662Y0019442D01*
X0130792Y0019532D01*
X0130925Y0019618D01*
X0131060Y0019702D01*
X0131196Y0019781D01*
X0131335Y0019858D01*
X0131476Y0019930D01*
X0131618Y0020000D01*
X0131762Y0020065D01*
X0131908Y0020127D01*
X0132055Y0020185D01*
X0132204Y0020240D01*
X0132354Y0020291D01*
X0132505Y0020338D01*
X0132657Y0020381D01*
X0132810Y0020420D01*
X0132965Y0020456D01*
X0133120Y0020487D01*
X0133276Y0020515D01*
X0133432Y0020539D01*
X0133589Y0020559D01*
X0133747Y0020575D01*
X0133904Y0020587D01*
X0134063Y0020595D01*
X0134221Y0020599D01*
X0134379Y0020599D01*
X0134537Y0020595D01*
X0134696Y0020587D01*
X0134853Y0020575D01*
X0135011Y0020559D01*
X0135168Y0020539D01*
X0135324Y0020515D01*
X0135480Y0020487D01*
X0135635Y0020456D01*
X0135790Y0020420D01*
X0135943Y0020381D01*
X0136095Y0020338D01*
X0136246Y0020291D01*
X0136396Y0020240D01*
X0136545Y0020185D01*
X0136692Y0020127D01*
X0136838Y0020065D01*
X0136982Y0020000D01*
X0137124Y0019930D01*
X0137265Y0019858D01*
X0137404Y0019781D01*
X0137540Y0019702D01*
X0137675Y0019618D01*
X0137808Y0019532D01*
X0137938Y0019442D01*
X0138066Y0019349D01*
X0138192Y0019253D01*
X0138315Y0019153D01*
X0138436Y0019051D01*
X0138554Y0018946D01*
X0138669Y0018837D01*
X0138782Y0018726D01*
X0138892Y0018612D01*
X0138999Y0018495D01*
X0139103Y0018376D01*
X0139204Y0018254D01*
X0139301Y0018129D01*
X0139396Y0018002D01*
X0139487Y0017873D01*
X0139576Y0017742D01*
X0139660Y0017608D01*
X0139742Y0017472D01*
X0139820Y0017335D01*
X0139894Y0017195D01*
X0139965Y0017053D01*
X0140033Y0016910D01*
X0140097Y0016765D01*
X0140157Y0016619D01*
X0140213Y0016471D01*
X0140266Y0016322D01*
X0140315Y0016171D01*
X0140360Y0016019D01*
X0140401Y0015866D01*
X0140439Y0015713D01*
X0140472Y0015558D01*
X0140502Y0015402D01*
X0140528Y0015246D01*
X0140549Y0015089D01*
X0140567Y0014932D01*
X0140581Y0014774D01*
X0140591Y0014616D01*
X0140597Y0014458D01*
X0140599Y0014300D01*
X0140597Y0014142D01*
X0140591Y0013984D01*
X0140581Y0013826D01*
X0140567Y0013668D01*
X0140549Y0013511D01*
X0140528Y0013354D01*
X0140502Y0013198D01*
X0140472Y0013042D01*
X0140439Y0012887D01*
X0140401Y0012734D01*
X0140360Y0012581D01*
X0140315Y0012429D01*
X0140266Y0012278D01*
X0140213Y0012129D01*
X0140157Y0011981D01*
X0140097Y0011835D01*
X0140033Y0011690D01*
X0139965Y0011547D01*
X0139894Y0011405D01*
X0139820Y0011265D01*
X0139742Y0011128D01*
X0139660Y0010992D01*
X0139576Y0010858D01*
X0139487Y0010727D01*
X0139396Y0010598D01*
X0139301Y0010471D01*
X0139204Y0010346D01*
X0139103Y0010224D01*
X0138999Y0010105D01*
X0138892Y0009988D01*
X0138782Y0009874D01*
X0138669Y0009763D01*
X0138554Y0009654D01*
X0138436Y0009549D01*
X0138315Y0009447D01*
X0138192Y0009347D01*
X0138066Y0009251D01*
X0137938Y0009158D01*
X0137808Y0009068D01*
X0137675Y0008982D01*
X0137540Y0008898D01*
X0137404Y0008819D01*
X0137265Y0008742D01*
X0137124Y0008670D01*
X0136982Y0008600D01*
X0136838Y0008535D01*
X0136692Y0008473D01*
X0136545Y0008415D01*
X0136396Y0008360D01*
X0136246Y0008309D01*
X0136095Y0008262D01*
X0135943Y0008219D01*
X0135790Y0008180D01*
X0135635Y0008144D01*
X0135480Y0008113D01*
X0135324Y0008085D01*
X0135168Y0008061D01*
X0135011Y0008041D01*
X0134853Y0008025D01*
X0134696Y0008013D01*
X0134537Y0008005D01*
X0134379Y0008001D01*
X0134221Y0008001D01*
X0134063Y0008005D01*
X0133904Y0008013D01*
X0133747Y0008025D01*
X0133589Y0008041D01*
X0133432Y0008061D01*
X0133276Y0008085D01*
X0133120Y0008113D01*
X0132965Y0008144D01*
X0132810Y0008180D01*
X0132657Y0008219D01*
X0132505Y0008262D01*
X0132354Y0008309D01*
X0132204Y0008360D01*
X0132055Y0008415D01*
X0131908Y0008473D01*
X0131762Y0008535D01*
X0131618Y0008600D01*
X0131476Y0008670D01*
X0131335Y0008742D01*
X0131196Y0008819D01*
X0131060Y0008898D01*
X0130925Y0008982D01*
X0130792Y0009068D01*
X0130662Y0009158D01*
X0130534Y0009251D01*
X0130408Y0009347D01*
X0130285Y0009447D01*
X0130164Y0009549D01*
X0130046Y0009654D01*
X0129931Y0009763D01*
X0129818Y0009874D01*
X0129708Y0009988D01*
X0129601Y0010105D01*
X0129497Y0010224D01*
X0129396Y0010346D01*
X0129299Y0010471D01*
X0129204Y0010598D01*
X0129113Y0010727D01*
X0129024Y0010858D01*
X0128940Y0010992D01*
X0128858Y0011128D01*
X0128780Y0011265D01*
X0128706Y0011405D01*
X0128635Y0011547D01*
X0128567Y0011690D01*
X0128503Y0011835D01*
X0128443Y0011981D01*
X0128387Y0012129D01*
X0128334Y0012278D01*
X0128285Y0012429D01*
X0128240Y0012581D01*
X0128199Y0012734D01*
X0128161Y0012887D01*
X0128128Y0013042D01*
X0128098Y0013198D01*
X0128072Y0013354D01*
X0128051Y0013511D01*
X0128033Y0013668D01*
X0128019Y0013826D01*
X0128009Y0013984D01*
X0128003Y0014142D01*
X0128001Y0014300D01*
X0108001Y0194300D02*
X0108003Y0194458D01*
X0108009Y0194616D01*
X0108019Y0194774D01*
X0108033Y0194932D01*
X0108051Y0195089D01*
X0108072Y0195246D01*
X0108098Y0195402D01*
X0108128Y0195558D01*
X0108161Y0195713D01*
X0108199Y0195866D01*
X0108240Y0196019D01*
X0108285Y0196171D01*
X0108334Y0196322D01*
X0108387Y0196471D01*
X0108443Y0196619D01*
X0108503Y0196765D01*
X0108567Y0196910D01*
X0108635Y0197053D01*
X0108706Y0197195D01*
X0108780Y0197335D01*
X0108858Y0197472D01*
X0108940Y0197608D01*
X0109024Y0197742D01*
X0109113Y0197873D01*
X0109204Y0198002D01*
X0109299Y0198129D01*
X0109396Y0198254D01*
X0109497Y0198376D01*
X0109601Y0198495D01*
X0109708Y0198612D01*
X0109818Y0198726D01*
X0109931Y0198837D01*
X0110046Y0198946D01*
X0110164Y0199051D01*
X0110285Y0199153D01*
X0110408Y0199253D01*
X0110534Y0199349D01*
X0110662Y0199442D01*
X0110792Y0199532D01*
X0110925Y0199618D01*
X0111060Y0199702D01*
X0111196Y0199781D01*
X0111335Y0199858D01*
X0111476Y0199930D01*
X0111618Y0200000D01*
X0111762Y0200065D01*
X0111908Y0200127D01*
X0112055Y0200185D01*
X0112204Y0200240D01*
X0112354Y0200291D01*
X0112505Y0200338D01*
X0112657Y0200381D01*
X0112810Y0200420D01*
X0112965Y0200456D01*
X0113120Y0200487D01*
X0113276Y0200515D01*
X0113432Y0200539D01*
X0113589Y0200559D01*
X0113747Y0200575D01*
X0113904Y0200587D01*
X0114063Y0200595D01*
X0114221Y0200599D01*
X0114379Y0200599D01*
X0114537Y0200595D01*
X0114696Y0200587D01*
X0114853Y0200575D01*
X0115011Y0200559D01*
X0115168Y0200539D01*
X0115324Y0200515D01*
X0115480Y0200487D01*
X0115635Y0200456D01*
X0115790Y0200420D01*
X0115943Y0200381D01*
X0116095Y0200338D01*
X0116246Y0200291D01*
X0116396Y0200240D01*
X0116545Y0200185D01*
X0116692Y0200127D01*
X0116838Y0200065D01*
X0116982Y0200000D01*
X0117124Y0199930D01*
X0117265Y0199858D01*
X0117404Y0199781D01*
X0117540Y0199702D01*
X0117675Y0199618D01*
X0117808Y0199532D01*
X0117938Y0199442D01*
X0118066Y0199349D01*
X0118192Y0199253D01*
X0118315Y0199153D01*
X0118436Y0199051D01*
X0118554Y0198946D01*
X0118669Y0198837D01*
X0118782Y0198726D01*
X0118892Y0198612D01*
X0118999Y0198495D01*
X0119103Y0198376D01*
X0119204Y0198254D01*
X0119301Y0198129D01*
X0119396Y0198002D01*
X0119487Y0197873D01*
X0119576Y0197742D01*
X0119660Y0197608D01*
X0119742Y0197472D01*
X0119820Y0197335D01*
X0119894Y0197195D01*
X0119965Y0197053D01*
X0120033Y0196910D01*
X0120097Y0196765D01*
X0120157Y0196619D01*
X0120213Y0196471D01*
X0120266Y0196322D01*
X0120315Y0196171D01*
X0120360Y0196019D01*
X0120401Y0195866D01*
X0120439Y0195713D01*
X0120472Y0195558D01*
X0120502Y0195402D01*
X0120528Y0195246D01*
X0120549Y0195089D01*
X0120567Y0194932D01*
X0120581Y0194774D01*
X0120591Y0194616D01*
X0120597Y0194458D01*
X0120599Y0194300D01*
X0120597Y0194142D01*
X0120591Y0193984D01*
X0120581Y0193826D01*
X0120567Y0193668D01*
X0120549Y0193511D01*
X0120528Y0193354D01*
X0120502Y0193198D01*
X0120472Y0193042D01*
X0120439Y0192887D01*
X0120401Y0192734D01*
X0120360Y0192581D01*
X0120315Y0192429D01*
X0120266Y0192278D01*
X0120213Y0192129D01*
X0120157Y0191981D01*
X0120097Y0191835D01*
X0120033Y0191690D01*
X0119965Y0191547D01*
X0119894Y0191405D01*
X0119820Y0191265D01*
X0119742Y0191128D01*
X0119660Y0190992D01*
X0119576Y0190858D01*
X0119487Y0190727D01*
X0119396Y0190598D01*
X0119301Y0190471D01*
X0119204Y0190346D01*
X0119103Y0190224D01*
X0118999Y0190105D01*
X0118892Y0189988D01*
X0118782Y0189874D01*
X0118669Y0189763D01*
X0118554Y0189654D01*
X0118436Y0189549D01*
X0118315Y0189447D01*
X0118192Y0189347D01*
X0118066Y0189251D01*
X0117938Y0189158D01*
X0117808Y0189068D01*
X0117675Y0188982D01*
X0117540Y0188898D01*
X0117404Y0188819D01*
X0117265Y0188742D01*
X0117124Y0188670D01*
X0116982Y0188600D01*
X0116838Y0188535D01*
X0116692Y0188473D01*
X0116545Y0188415D01*
X0116396Y0188360D01*
X0116246Y0188309D01*
X0116095Y0188262D01*
X0115943Y0188219D01*
X0115790Y0188180D01*
X0115635Y0188144D01*
X0115480Y0188113D01*
X0115324Y0188085D01*
X0115168Y0188061D01*
X0115011Y0188041D01*
X0114853Y0188025D01*
X0114696Y0188013D01*
X0114537Y0188005D01*
X0114379Y0188001D01*
X0114221Y0188001D01*
X0114063Y0188005D01*
X0113904Y0188013D01*
X0113747Y0188025D01*
X0113589Y0188041D01*
X0113432Y0188061D01*
X0113276Y0188085D01*
X0113120Y0188113D01*
X0112965Y0188144D01*
X0112810Y0188180D01*
X0112657Y0188219D01*
X0112505Y0188262D01*
X0112354Y0188309D01*
X0112204Y0188360D01*
X0112055Y0188415D01*
X0111908Y0188473D01*
X0111762Y0188535D01*
X0111618Y0188600D01*
X0111476Y0188670D01*
X0111335Y0188742D01*
X0111196Y0188819D01*
X0111060Y0188898D01*
X0110925Y0188982D01*
X0110792Y0189068D01*
X0110662Y0189158D01*
X0110534Y0189251D01*
X0110408Y0189347D01*
X0110285Y0189447D01*
X0110164Y0189549D01*
X0110046Y0189654D01*
X0109931Y0189763D01*
X0109818Y0189874D01*
X0109708Y0189988D01*
X0109601Y0190105D01*
X0109497Y0190224D01*
X0109396Y0190346D01*
X0109299Y0190471D01*
X0109204Y0190598D01*
X0109113Y0190727D01*
X0109024Y0190858D01*
X0108940Y0190992D01*
X0108858Y0191128D01*
X0108780Y0191265D01*
X0108706Y0191405D01*
X0108635Y0191547D01*
X0108567Y0191690D01*
X0108503Y0191835D01*
X0108443Y0191981D01*
X0108387Y0192129D01*
X0108334Y0192278D01*
X0108285Y0192429D01*
X0108240Y0192581D01*
X0108199Y0192734D01*
X0108161Y0192887D01*
X0108128Y0193042D01*
X0108098Y0193198D01*
X0108072Y0193354D01*
X0108051Y0193511D01*
X0108033Y0193668D01*
X0108019Y0193826D01*
X0108009Y0193984D01*
X0108003Y0194142D01*
X0108001Y0194300D01*
X0053001Y0194300D02*
X0053003Y0194458D01*
X0053009Y0194616D01*
X0053019Y0194774D01*
X0053033Y0194932D01*
X0053051Y0195089D01*
X0053072Y0195246D01*
X0053098Y0195402D01*
X0053128Y0195558D01*
X0053161Y0195713D01*
X0053199Y0195866D01*
X0053240Y0196019D01*
X0053285Y0196171D01*
X0053334Y0196322D01*
X0053387Y0196471D01*
X0053443Y0196619D01*
X0053503Y0196765D01*
X0053567Y0196910D01*
X0053635Y0197053D01*
X0053706Y0197195D01*
X0053780Y0197335D01*
X0053858Y0197472D01*
X0053940Y0197608D01*
X0054024Y0197742D01*
X0054113Y0197873D01*
X0054204Y0198002D01*
X0054299Y0198129D01*
X0054396Y0198254D01*
X0054497Y0198376D01*
X0054601Y0198495D01*
X0054708Y0198612D01*
X0054818Y0198726D01*
X0054931Y0198837D01*
X0055046Y0198946D01*
X0055164Y0199051D01*
X0055285Y0199153D01*
X0055408Y0199253D01*
X0055534Y0199349D01*
X0055662Y0199442D01*
X0055792Y0199532D01*
X0055925Y0199618D01*
X0056060Y0199702D01*
X0056196Y0199781D01*
X0056335Y0199858D01*
X0056476Y0199930D01*
X0056618Y0200000D01*
X0056762Y0200065D01*
X0056908Y0200127D01*
X0057055Y0200185D01*
X0057204Y0200240D01*
X0057354Y0200291D01*
X0057505Y0200338D01*
X0057657Y0200381D01*
X0057810Y0200420D01*
X0057965Y0200456D01*
X0058120Y0200487D01*
X0058276Y0200515D01*
X0058432Y0200539D01*
X0058589Y0200559D01*
X0058747Y0200575D01*
X0058904Y0200587D01*
X0059063Y0200595D01*
X0059221Y0200599D01*
X0059379Y0200599D01*
X0059537Y0200595D01*
X0059696Y0200587D01*
X0059853Y0200575D01*
X0060011Y0200559D01*
X0060168Y0200539D01*
X0060324Y0200515D01*
X0060480Y0200487D01*
X0060635Y0200456D01*
X0060790Y0200420D01*
X0060943Y0200381D01*
X0061095Y0200338D01*
X0061246Y0200291D01*
X0061396Y0200240D01*
X0061545Y0200185D01*
X0061692Y0200127D01*
X0061838Y0200065D01*
X0061982Y0200000D01*
X0062124Y0199930D01*
X0062265Y0199858D01*
X0062404Y0199781D01*
X0062540Y0199702D01*
X0062675Y0199618D01*
X0062808Y0199532D01*
X0062938Y0199442D01*
X0063066Y0199349D01*
X0063192Y0199253D01*
X0063315Y0199153D01*
X0063436Y0199051D01*
X0063554Y0198946D01*
X0063669Y0198837D01*
X0063782Y0198726D01*
X0063892Y0198612D01*
X0063999Y0198495D01*
X0064103Y0198376D01*
X0064204Y0198254D01*
X0064301Y0198129D01*
X0064396Y0198002D01*
X0064487Y0197873D01*
X0064576Y0197742D01*
X0064660Y0197608D01*
X0064742Y0197472D01*
X0064820Y0197335D01*
X0064894Y0197195D01*
X0064965Y0197053D01*
X0065033Y0196910D01*
X0065097Y0196765D01*
X0065157Y0196619D01*
X0065213Y0196471D01*
X0065266Y0196322D01*
X0065315Y0196171D01*
X0065360Y0196019D01*
X0065401Y0195866D01*
X0065439Y0195713D01*
X0065472Y0195558D01*
X0065502Y0195402D01*
X0065528Y0195246D01*
X0065549Y0195089D01*
X0065567Y0194932D01*
X0065581Y0194774D01*
X0065591Y0194616D01*
X0065597Y0194458D01*
X0065599Y0194300D01*
X0065597Y0194142D01*
X0065591Y0193984D01*
X0065581Y0193826D01*
X0065567Y0193668D01*
X0065549Y0193511D01*
X0065528Y0193354D01*
X0065502Y0193198D01*
X0065472Y0193042D01*
X0065439Y0192887D01*
X0065401Y0192734D01*
X0065360Y0192581D01*
X0065315Y0192429D01*
X0065266Y0192278D01*
X0065213Y0192129D01*
X0065157Y0191981D01*
X0065097Y0191835D01*
X0065033Y0191690D01*
X0064965Y0191547D01*
X0064894Y0191405D01*
X0064820Y0191265D01*
X0064742Y0191128D01*
X0064660Y0190992D01*
X0064576Y0190858D01*
X0064487Y0190727D01*
X0064396Y0190598D01*
X0064301Y0190471D01*
X0064204Y0190346D01*
X0064103Y0190224D01*
X0063999Y0190105D01*
X0063892Y0189988D01*
X0063782Y0189874D01*
X0063669Y0189763D01*
X0063554Y0189654D01*
X0063436Y0189549D01*
X0063315Y0189447D01*
X0063192Y0189347D01*
X0063066Y0189251D01*
X0062938Y0189158D01*
X0062808Y0189068D01*
X0062675Y0188982D01*
X0062540Y0188898D01*
X0062404Y0188819D01*
X0062265Y0188742D01*
X0062124Y0188670D01*
X0061982Y0188600D01*
X0061838Y0188535D01*
X0061692Y0188473D01*
X0061545Y0188415D01*
X0061396Y0188360D01*
X0061246Y0188309D01*
X0061095Y0188262D01*
X0060943Y0188219D01*
X0060790Y0188180D01*
X0060635Y0188144D01*
X0060480Y0188113D01*
X0060324Y0188085D01*
X0060168Y0188061D01*
X0060011Y0188041D01*
X0059853Y0188025D01*
X0059696Y0188013D01*
X0059537Y0188005D01*
X0059379Y0188001D01*
X0059221Y0188001D01*
X0059063Y0188005D01*
X0058904Y0188013D01*
X0058747Y0188025D01*
X0058589Y0188041D01*
X0058432Y0188061D01*
X0058276Y0188085D01*
X0058120Y0188113D01*
X0057965Y0188144D01*
X0057810Y0188180D01*
X0057657Y0188219D01*
X0057505Y0188262D01*
X0057354Y0188309D01*
X0057204Y0188360D01*
X0057055Y0188415D01*
X0056908Y0188473D01*
X0056762Y0188535D01*
X0056618Y0188600D01*
X0056476Y0188670D01*
X0056335Y0188742D01*
X0056196Y0188819D01*
X0056060Y0188898D01*
X0055925Y0188982D01*
X0055792Y0189068D01*
X0055662Y0189158D01*
X0055534Y0189251D01*
X0055408Y0189347D01*
X0055285Y0189447D01*
X0055164Y0189549D01*
X0055046Y0189654D01*
X0054931Y0189763D01*
X0054818Y0189874D01*
X0054708Y0189988D01*
X0054601Y0190105D01*
X0054497Y0190224D01*
X0054396Y0190346D01*
X0054299Y0190471D01*
X0054204Y0190598D01*
X0054113Y0190727D01*
X0054024Y0190858D01*
X0053940Y0190992D01*
X0053858Y0191128D01*
X0053780Y0191265D01*
X0053706Y0191405D01*
X0053635Y0191547D01*
X0053567Y0191690D01*
X0053503Y0191835D01*
X0053443Y0191981D01*
X0053387Y0192129D01*
X0053334Y0192278D01*
X0053285Y0192429D01*
X0053240Y0192581D01*
X0053199Y0192734D01*
X0053161Y0192887D01*
X0053128Y0193042D01*
X0053098Y0193198D01*
X0053072Y0193354D01*
X0053051Y0193511D01*
X0053033Y0193668D01*
X0053019Y0193826D01*
X0053009Y0193984D01*
X0053003Y0194142D01*
X0053001Y0194300D01*
D11*
X0064300Y0168434D03*
X0064300Y0160166D03*
X0064300Y0128434D03*
X0064300Y0120166D03*
X0064300Y0088434D03*
X0064300Y0080166D03*
D12*
X0074300Y0069300D02*
X0074300Y0189300D01*
X0144300Y0189300D01*
X0144300Y0069300D01*
X0074300Y0069300D01*
D13*
X0079300Y0184300D03*
X0139300Y0184300D03*
D14*
X0139300Y0174300D03*
X0139300Y0164300D03*
X0139300Y0154300D03*
X0139300Y0144300D03*
X0139300Y0134300D03*
X0139300Y0124300D03*
X0139300Y0114300D03*
X0139300Y0104300D03*
X0139300Y0094300D03*
X0139300Y0084300D03*
X0139300Y0074300D03*
X0079300Y0074300D03*
X0079300Y0084300D03*
X0079300Y0094300D03*
X0079300Y0104300D03*
X0079300Y0114300D03*
X0079300Y0124300D03*
X0079300Y0134300D03*
X0079300Y0144300D03*
X0079300Y0154300D03*
X0079300Y0164300D03*
X0079300Y0174300D03*
D15*
X0043040Y0183631D03*
X0035560Y0183631D03*
X0028040Y0183631D03*
X0020560Y0183631D03*
X0024300Y0174969D03*
X0039300Y0174969D03*
X0035560Y0143631D03*
X0039300Y0134969D03*
X0043040Y0143631D03*
X0028040Y0143631D03*
X0024300Y0134969D03*
X0020560Y0143631D03*
X0020560Y0103631D03*
X0024300Y0094969D03*
X0028040Y0103631D03*
X0035560Y0103631D03*
X0039300Y0094969D03*
X0043040Y0103631D03*
D16*
X0053702Y0099300D03*
X0064898Y0099300D03*
X0054898Y0084300D03*
X0043702Y0084300D03*
X0024898Y0084300D03*
X0013702Y0084300D03*
X0013702Y0124300D03*
X0024898Y0124300D03*
X0043702Y0124300D03*
X0053702Y0139300D03*
X0064898Y0139300D03*
X0054898Y0124300D03*
X0054898Y0164300D03*
X0053702Y0179300D03*
X0064898Y0179300D03*
X0043702Y0164300D03*
X0024898Y0164300D03*
X0013702Y0164300D03*
D17*
X0079300Y0059898D03*
X0079300Y0048702D03*
D18*
X0139300Y0059300D03*
D19*
X0139300Y0049300D03*
X0129300Y0049300D03*
X0129300Y0059300D03*
X0119300Y0059300D03*
X0119300Y0049300D03*
D20*
X0031800Y0029300D03*
X0024300Y0029300D03*
X0016800Y0029300D03*
D21*
X0088001Y0035393D03*
X0091150Y0035393D03*
X0094300Y0035393D03*
X0097450Y0035393D03*
X0100599Y0035393D03*
D22*
X0112017Y0035393D03*
X0112017Y0013739D03*
X0076583Y0013739D03*
X0076583Y0035393D03*
D23*
X0070846Y0029726D02*
X0071901Y0028671D01*
X0081266Y0028671D01*
X0082320Y0029726D01*
X0082320Y0041059D01*
X0081266Y0042114D01*
X0074541Y0042114D01*
X0076179Y0043752D01*
X0080171Y0043752D01*
X0083400Y0040523D01*
X0083400Y0031124D01*
X0083918Y0029874D01*
X0084363Y0029429D01*
X0083332Y0029002D01*
X0082187Y0027856D01*
X0081567Y0026360D01*
X0081567Y0024740D01*
X0082187Y0023244D01*
X0083332Y0022098D01*
X0084829Y0021478D01*
X0086448Y0021478D01*
X0087945Y0022098D01*
X0089090Y0023244D01*
X0089710Y0024740D01*
X0089710Y0026360D01*
X0089090Y0027856D01*
X0088275Y0028671D01*
X0099179Y0028671D01*
X0099221Y0028713D01*
X0099378Y0028671D01*
X0100324Y0028671D01*
X0099510Y0027856D01*
X0098890Y0026360D01*
X0098890Y0024740D01*
X0099510Y0023244D01*
X0100655Y0022098D01*
X0102152Y0021478D01*
X0103771Y0021478D01*
X0105268Y0022098D01*
X0106413Y0023244D01*
X0107033Y0024740D01*
X0107033Y0026360D01*
X0106413Y0027856D01*
X0105268Y0029002D01*
X0103771Y0029622D01*
X0103171Y0029622D01*
X0103261Y0029776D01*
X0103383Y0030234D01*
X0103383Y0035392D01*
X0100599Y0035392D01*
X0100599Y0035393D01*
X0100599Y0042114D01*
X0099378Y0042114D01*
X0099221Y0042072D01*
X0099179Y0042114D01*
X0090672Y0042114D01*
X0104458Y0055900D01*
X0115912Y0055900D01*
X0117312Y0054500D01*
X0121288Y0054500D01*
X0122688Y0055900D01*
X0125912Y0055900D01*
X0127312Y0054500D01*
X0131288Y0054500D01*
X0132688Y0055900D01*
X0135912Y0055900D01*
X0136581Y0055231D01*
X0138345Y0054500D01*
X0140255Y0054500D01*
X0142019Y0055231D01*
X0143369Y0056581D01*
X0144100Y0058345D01*
X0144100Y0060255D01*
X0143369Y0062019D01*
X0142019Y0063369D01*
X0140255Y0064100D01*
X0138345Y0064100D01*
X0136581Y0063369D01*
X0135912Y0062700D01*
X0132700Y0062700D01*
X0132700Y0066750D01*
X0144807Y0066750D01*
X0145744Y0067138D01*
X0146128Y0067522D01*
X0146318Y0007850D01*
X0140011Y0007850D01*
X0141590Y0009429D01*
X0142899Y0012590D01*
X0142899Y0016010D01*
X0141590Y0019171D01*
X0139171Y0021590D01*
X0136010Y0022899D01*
X0132590Y0022899D01*
X0129429Y0021590D01*
X0127010Y0019171D01*
X0125701Y0016010D01*
X0125701Y0012590D01*
X0127010Y0009429D01*
X0128589Y0007850D01*
X0117531Y0007850D01*
X0117754Y0008072D01*
X0117754Y0019406D01*
X0116699Y0020460D01*
X0107334Y0020460D01*
X0106280Y0019406D01*
X0106280Y0008072D01*
X0106502Y0007850D01*
X0082098Y0007850D01*
X0082320Y0008072D01*
X0082320Y0019406D01*
X0081266Y0020460D01*
X0071901Y0020460D01*
X0070846Y0019406D01*
X0070846Y0008072D01*
X0071069Y0007850D01*
X0022511Y0007850D01*
X0024090Y0009429D01*
X0025399Y0012590D01*
X0025399Y0016010D01*
X0024090Y0019171D01*
X0021671Y0021590D01*
X0018510Y0022899D01*
X0015090Y0022899D01*
X0011929Y0021590D01*
X0009510Y0019171D01*
X0008201Y0016010D01*
X0008201Y0012590D01*
X0009510Y0009429D01*
X0011089Y0007850D01*
X0007218Y0007850D01*
X0006607Y0199461D01*
X0052300Y0199461D01*
X0052010Y0199171D01*
X0050701Y0196010D01*
X0050701Y0192590D01*
X0052010Y0189429D01*
X0054429Y0187010D01*
X0057590Y0185701D01*
X0061010Y0185701D01*
X0064171Y0187010D01*
X0066590Y0189429D01*
X0067899Y0192590D01*
X0067899Y0196010D01*
X0066590Y0199171D01*
X0066300Y0199461D01*
X0107300Y0199461D01*
X0107010Y0199171D01*
X0105701Y0196010D01*
X0105701Y0192590D01*
X0106007Y0191850D01*
X0073793Y0191850D01*
X0072856Y0191462D01*
X0072138Y0190744D01*
X0071750Y0189807D01*
X0071750Y0161900D01*
X0068462Y0161900D01*
X0068462Y0163274D01*
X0067436Y0164300D01*
X0068462Y0165326D01*
X0068462Y0171542D01*
X0067408Y0172596D01*
X0066900Y0172596D01*
X0066900Y0173951D01*
X0068794Y0173951D01*
X0069848Y0175005D01*
X0069848Y0183595D01*
X0068794Y0184649D01*
X0061003Y0184649D01*
X0059949Y0183595D01*
X0059949Y0175005D01*
X0061003Y0173951D01*
X0061700Y0173951D01*
X0061700Y0172596D01*
X0061192Y0172596D01*
X0060138Y0171542D01*
X0060138Y0165326D01*
X0061164Y0164300D01*
X0060138Y0163274D01*
X0060138Y0162900D01*
X0059848Y0162900D01*
X0059848Y0168595D01*
X0058794Y0169649D01*
X0051003Y0169649D01*
X0049949Y0168595D01*
X0049949Y0160005D01*
X0051003Y0158951D01*
X0053045Y0158951D01*
X0053096Y0158827D01*
X0053827Y0158096D01*
X0054783Y0157700D01*
X0060138Y0157700D01*
X0060138Y0157058D01*
X0061192Y0156004D01*
X0067408Y0156004D01*
X0068104Y0156700D01*
X0071700Y0156700D01*
X0071700Y0138783D01*
X0071750Y0138662D01*
X0071750Y0121900D01*
X0068462Y0121900D01*
X0068462Y0123274D01*
X0067436Y0124300D01*
X0068462Y0125326D01*
X0068462Y0131542D01*
X0067408Y0132596D01*
X0066900Y0132596D01*
X0066900Y0133951D01*
X0068794Y0133951D01*
X0069848Y0135005D01*
X0069848Y0143595D01*
X0068794Y0144649D01*
X0061003Y0144649D01*
X0059949Y0143595D01*
X0059949Y0135005D01*
X0061003Y0133951D01*
X0061700Y0133951D01*
X0061700Y0132596D01*
X0061192Y0132596D01*
X0060138Y0131542D01*
X0060138Y0125326D01*
X0061164Y0124300D01*
X0060138Y0123274D01*
X0060138Y0122900D01*
X0059848Y0122900D01*
X0059848Y0128595D01*
X0058794Y0129649D01*
X0051003Y0129649D01*
X0049949Y0128595D01*
X0049949Y0120005D01*
X0051003Y0118951D01*
X0053045Y0118951D01*
X0053096Y0118827D01*
X0053827Y0118096D01*
X0054783Y0117700D01*
X0060138Y0117700D01*
X0060138Y0117058D01*
X0061192Y0116004D01*
X0067408Y0116004D01*
X0068104Y0116700D01*
X0071750Y0116700D01*
X0071750Y0100427D01*
X0071577Y0100254D01*
X0070846Y0099523D01*
X0070450Y0098567D01*
X0070450Y0089993D01*
X0068462Y0088005D01*
X0068462Y0091542D01*
X0067408Y0092596D01*
X0066900Y0092596D01*
X0066900Y0093951D01*
X0068794Y0093951D01*
X0069848Y0095005D01*
X0069848Y0103595D01*
X0068794Y0104649D01*
X0061003Y0104649D01*
X0059949Y0103595D01*
X0059949Y0095005D01*
X0061003Y0093951D01*
X0061700Y0093951D01*
X0061700Y0092596D01*
X0061192Y0092596D01*
X0060138Y0091542D01*
X0060138Y0085326D01*
X0061164Y0084300D01*
X0060138Y0083274D01*
X0060138Y0082900D01*
X0059975Y0082900D01*
X0059848Y0083027D01*
X0059848Y0088595D01*
X0058794Y0089649D01*
X0051003Y0089649D01*
X0049949Y0088595D01*
X0049949Y0080005D01*
X0051003Y0078951D01*
X0056571Y0078951D01*
X0056895Y0078626D01*
X0056938Y0078541D01*
X0057259Y0078262D01*
X0057559Y0077962D01*
X0057647Y0077926D01*
X0057719Y0077863D01*
X0058123Y0077729D01*
X0058515Y0077566D01*
X0058610Y0077566D01*
X0058701Y0077536D01*
X0059124Y0077566D01*
X0059549Y0077566D01*
X0059637Y0077603D01*
X0059732Y0077609D01*
X0059914Y0077700D01*
X0060138Y0077700D01*
X0060138Y0077058D01*
X0061192Y0076004D01*
X0067408Y0076004D01*
X0068462Y0077058D01*
X0068462Y0080651D01*
X0071750Y0083939D01*
X0071750Y0068793D01*
X0072138Y0067856D01*
X0072856Y0067138D01*
X0073793Y0066750D01*
X0082475Y0066750D01*
X0080573Y0064848D01*
X0075005Y0064848D01*
X0073951Y0063794D01*
X0073951Y0061900D01*
X0058133Y0061900D01*
X0057699Y0061928D01*
X0057618Y0061900D01*
X0057533Y0061900D01*
X0057132Y0061734D01*
X0056721Y0061594D01*
X0056656Y0061537D01*
X0056577Y0061504D01*
X0056270Y0061197D01*
X0025406Y0034037D01*
X0025327Y0034004D01*
X0025020Y0033697D01*
X0024753Y0033462D01*
X0023472Y0033462D01*
X0021942Y0032829D01*
X0020771Y0031658D01*
X0020547Y0031115D01*
X0020360Y0031481D01*
X0019975Y0032011D01*
X0019511Y0032475D01*
X0018981Y0032860D01*
X0018398Y0033157D01*
X0017775Y0033360D01*
X0017128Y0033462D01*
X0016800Y0033462D01*
X0016800Y0029300D01*
X0010550Y0029300D01*
X0012638Y0029300D02*
X0012638Y0028972D01*
X0012740Y0028325D01*
X0012943Y0027702D01*
X0013240Y0027119D01*
X0013625Y0026588D01*
X0014088Y0026125D01*
X0014619Y0025740D01*
X0015202Y0025443D01*
X0015825Y0025240D01*
X0016472Y0025138D01*
X0016800Y0025138D01*
X0017128Y0025138D01*
X0017775Y0025240D01*
X0018398Y0025443D01*
X0018981Y0025740D01*
X0019511Y0026125D01*
X0019975Y0026588D01*
X0020360Y0027119D01*
X0020547Y0027485D01*
X0020771Y0026942D01*
X0021942Y0025771D01*
X0023472Y0025138D01*
X0025128Y0025138D01*
X0026658Y0025771D01*
X0027829Y0026942D01*
X0028050Y0027477D01*
X0028271Y0026942D01*
X0029442Y0025771D01*
X0030972Y0025138D01*
X0032628Y0025138D01*
X0034158Y0025771D01*
X0035086Y0026700D01*
X0058567Y0026700D01*
X0059523Y0027096D01*
X0070846Y0038420D01*
X0070846Y0029726D01*
X0071012Y0029560D02*
X0061987Y0029560D01*
X0060388Y0027962D02*
X0082292Y0027962D01*
X0082155Y0029560D02*
X0084232Y0029560D01*
X0083400Y0031159D02*
X0082320Y0031159D01*
X0082320Y0032757D02*
X0083400Y0032757D01*
X0083400Y0034356D02*
X0082320Y0034356D01*
X0082320Y0035954D02*
X0083400Y0035954D01*
X0083400Y0037553D02*
X0082320Y0037553D01*
X0082320Y0039151D02*
X0083400Y0039151D01*
X0083173Y0040750D02*
X0082320Y0040750D01*
X0081575Y0042348D02*
X0074775Y0042348D01*
X0076800Y0048050D02*
X0078648Y0048050D01*
X0079300Y0048702D01*
X0079300Y0048300D01*
X0087300Y0040300D01*
X0090906Y0042348D02*
X0146209Y0042348D01*
X0146214Y0040750D02*
X0117754Y0040750D01*
X0117754Y0041059D02*
X0116699Y0042114D01*
X0107334Y0042114D01*
X0106280Y0041059D01*
X0106280Y0029726D01*
X0107334Y0028671D01*
X0116699Y0028671D01*
X0117754Y0029726D01*
X0117754Y0041059D01*
X0117754Y0039151D02*
X0146219Y0039151D01*
X0146224Y0037553D02*
X0117754Y0037553D01*
X0117754Y0035954D02*
X0146229Y0035954D01*
X0146234Y0034356D02*
X0117754Y0034356D01*
X0117754Y0032757D02*
X0146239Y0032757D01*
X0146244Y0031159D02*
X0117754Y0031159D01*
X0117588Y0029560D02*
X0146249Y0029560D01*
X0146254Y0027962D02*
X0106308Y0027962D01*
X0106445Y0029560D02*
X0103920Y0029560D01*
X0103383Y0031159D02*
X0106280Y0031159D01*
X0106280Y0032757D02*
X0103383Y0032757D01*
X0103383Y0034356D02*
X0106280Y0034356D01*
X0106280Y0035954D02*
X0103383Y0035954D01*
X0103383Y0035393D02*
X0103383Y0040551D01*
X0103261Y0041009D01*
X0103024Y0041419D01*
X0102689Y0041754D01*
X0102278Y0041991D01*
X0101820Y0042114D01*
X0100599Y0042114D01*
X0100599Y0035393D01*
X0100599Y0035393D01*
X0103383Y0035393D01*
X0103383Y0037553D02*
X0106280Y0037553D01*
X0106280Y0039151D02*
X0103383Y0039151D01*
X0103330Y0040750D02*
X0106280Y0040750D01*
X0100599Y0040750D02*
X0100599Y0040750D01*
X0100599Y0039151D02*
X0100599Y0039151D01*
X0100599Y0037553D02*
X0100599Y0037553D01*
X0100599Y0035954D02*
X0100599Y0035954D01*
X0099615Y0027962D02*
X0088985Y0027962D01*
X0089709Y0026363D02*
X0098891Y0026363D01*
X0098890Y0024765D02*
X0089710Y0024765D01*
X0089013Y0023166D02*
X0099587Y0023166D01*
X0101936Y0021568D02*
X0086664Y0021568D01*
X0084613Y0021568D02*
X0021694Y0021568D01*
X0023292Y0019969D02*
X0071410Y0019969D01*
X0070846Y0018370D02*
X0024422Y0018370D01*
X0025084Y0016772D02*
X0070846Y0016772D01*
X0070846Y0015173D02*
X0025399Y0015173D01*
X0025399Y0013575D02*
X0070846Y0013575D01*
X0070846Y0011976D02*
X0025145Y0011976D01*
X0024483Y0010378D02*
X0070846Y0010378D01*
X0070846Y0008779D02*
X0023441Y0008779D01*
X0011906Y0021568D02*
X0007174Y0021568D01*
X0007169Y0023166D02*
X0082264Y0023166D01*
X0081567Y0024765D02*
X0007164Y0024765D01*
X0007159Y0026363D02*
X0013851Y0026363D01*
X0012858Y0027962D02*
X0007154Y0027962D01*
X0007149Y0029560D02*
X0012638Y0029560D01*
X0012638Y0029628D02*
X0012638Y0029300D01*
X0016800Y0029300D01*
X0016800Y0029300D01*
X0016800Y0025138D01*
X0016800Y0029300D01*
X0016800Y0029300D01*
X0016800Y0029300D01*
X0016800Y0033462D01*
X0016472Y0033462D01*
X0015825Y0033360D01*
X0015202Y0033157D01*
X0014619Y0032860D01*
X0014088Y0032475D01*
X0013625Y0032011D01*
X0013240Y0031481D01*
X0012943Y0030898D01*
X0012740Y0030275D01*
X0012638Y0029628D01*
X0012638Y0029300D02*
X0016800Y0029300D01*
X0016800Y0029560D02*
X0016800Y0029560D01*
X0016800Y0027962D02*
X0016800Y0027962D01*
X0016800Y0026363D02*
X0016800Y0026363D01*
X0019749Y0026363D02*
X0021351Y0026363D01*
X0024300Y0029300D02*
X0026800Y0031800D01*
X0058050Y0059300D01*
X0078702Y0059300D01*
X0079300Y0059898D01*
X0085550Y0066148D01*
X0085550Y0139300D01*
X0080550Y0144300D01*
X0079300Y0144300D01*
X0082471Y0147850D02*
X0128042Y0147850D01*
X0127374Y0147182D02*
X0126418Y0146226D01*
X0125900Y0144976D01*
X0125900Y0071850D01*
X0088150Y0071850D01*
X0088150Y0139817D01*
X0087754Y0140773D01*
X0087023Y0141504D01*
X0084053Y0144474D01*
X0084053Y0146269D01*
X0081269Y0149053D01*
X0077331Y0149053D01*
X0076900Y0148621D01*
X0076900Y0149979D01*
X0077331Y0149547D01*
X0079116Y0149547D01*
X0079116Y0154116D01*
X0079484Y0154116D01*
X0079484Y0149547D01*
X0081269Y0149547D01*
X0084053Y0152331D01*
X0084053Y0154116D01*
X0079484Y0154116D01*
X0079484Y0154484D01*
X0079116Y0154484D01*
X0079116Y0159053D01*
X0077331Y0159053D01*
X0076900Y0158621D01*
X0076900Y0159817D01*
X0076850Y0159938D01*
X0076850Y0160029D01*
X0077331Y0159547D01*
X0081269Y0159547D01*
X0084053Y0162331D01*
X0084053Y0166269D01*
X0081269Y0169053D01*
X0077331Y0169053D01*
X0076850Y0168571D01*
X0076850Y0170029D01*
X0077331Y0169547D01*
X0081269Y0169547D01*
X0084053Y0172331D01*
X0084053Y0176269D01*
X0081269Y0179053D01*
X0077331Y0179053D01*
X0076850Y0178571D01*
X0076850Y0179547D01*
X0082998Y0179547D01*
X0084053Y0180602D01*
X0084053Y0186750D01*
X0110056Y0186750D01*
X0112590Y0185701D01*
X0116010Y0185701D01*
X0118543Y0186750D01*
X0134547Y0186750D01*
X0134547Y0180602D01*
X0135602Y0179547D01*
X0141750Y0179547D01*
X0141750Y0178571D01*
X0141269Y0179053D01*
X0139484Y0179053D01*
X0139484Y0174484D01*
X0139116Y0174484D01*
X0139116Y0174116D01*
X0139484Y0174116D01*
X0139484Y0169547D01*
X0141269Y0169547D01*
X0141750Y0170029D01*
X0141750Y0168571D01*
X0141269Y0169053D01*
X0137331Y0169053D01*
X0134547Y0166269D01*
X0134547Y0162331D01*
X0137331Y0159547D01*
X0141269Y0159547D01*
X0141750Y0160029D01*
X0141750Y0158571D01*
X0141269Y0159053D01*
X0137331Y0159053D01*
X0134547Y0156269D01*
X0134547Y0154356D01*
X0127374Y0147182D01*
X0126443Y0146251D02*
X0084053Y0146251D01*
X0084053Y0144653D02*
X0125900Y0144653D01*
X0125900Y0143054D02*
X0085473Y0143054D01*
X0087071Y0141456D02*
X0125900Y0141456D01*
X0125900Y0139857D02*
X0088133Y0139857D01*
X0088150Y0138259D02*
X0125900Y0138259D01*
X0125900Y0136660D02*
X0088150Y0136660D01*
X0088150Y0135062D02*
X0125900Y0135062D01*
X0125900Y0133463D02*
X0088150Y0133463D01*
X0088150Y0131865D02*
X0125900Y0131865D01*
X0125900Y0130266D02*
X0088150Y0130266D01*
X0088150Y0128668D02*
X0125900Y0128668D01*
X0125900Y0127069D02*
X0088150Y0127069D01*
X0088150Y0125471D02*
X0125900Y0125471D01*
X0125900Y0123872D02*
X0088150Y0123872D01*
X0088150Y0122274D02*
X0125900Y0122274D01*
X0125900Y0120675D02*
X0088150Y0120675D01*
X0088150Y0119077D02*
X0125900Y0119077D01*
X0125900Y0117478D02*
X0088150Y0117478D01*
X0088150Y0115880D02*
X0125900Y0115880D01*
X0125900Y0114281D02*
X0088150Y0114281D01*
X0088150Y0112683D02*
X0125900Y0112683D01*
X0125900Y0111084D02*
X0088150Y0111084D01*
X0088150Y0109486D02*
X0125900Y0109486D01*
X0125900Y0107887D02*
X0088150Y0107887D01*
X0088150Y0106289D02*
X0125900Y0106289D01*
X0125900Y0104690D02*
X0088150Y0104690D01*
X0088150Y0103092D02*
X0125900Y0103092D01*
X0125900Y0101493D02*
X0088150Y0101493D01*
X0088150Y0099895D02*
X0125900Y0099895D01*
X0125900Y0098296D02*
X0088150Y0098296D01*
X0088150Y0096698D02*
X0125900Y0096698D01*
X0125900Y0095099D02*
X0088150Y0095099D01*
X0088150Y0093501D02*
X0125900Y0093501D01*
X0125900Y0091902D02*
X0088150Y0091902D01*
X0088150Y0090303D02*
X0125900Y0090303D01*
X0125900Y0088705D02*
X0088150Y0088705D01*
X0088150Y0087106D02*
X0125900Y0087106D01*
X0125900Y0085508D02*
X0088150Y0085508D01*
X0088150Y0083909D02*
X0125900Y0083909D01*
X0125900Y0082311D02*
X0088150Y0082311D01*
X0088150Y0080712D02*
X0125900Y0080712D01*
X0125900Y0079114D02*
X0088150Y0079114D01*
X0088150Y0077515D02*
X0125900Y0077515D01*
X0125900Y0075917D02*
X0088150Y0075917D01*
X0088150Y0074318D02*
X0125900Y0074318D01*
X0125900Y0072720D02*
X0088150Y0072720D01*
X0082050Y0066326D02*
X0007031Y0066326D01*
X0007026Y0067924D02*
X0072110Y0067924D01*
X0071750Y0069523D02*
X0007021Y0069523D01*
X0007016Y0071121D02*
X0071750Y0071121D01*
X0071750Y0072720D02*
X0007011Y0072720D01*
X0007006Y0074318D02*
X0071750Y0074318D01*
X0071750Y0075917D02*
X0044341Y0075917D01*
X0044773Y0076096D02*
X0045504Y0076827D01*
X0045900Y0077783D01*
X0045900Y0078951D01*
X0047597Y0078951D01*
X0048651Y0080005D01*
X0048651Y0088595D01*
X0047597Y0089649D01*
X0045900Y0089649D01*
X0045900Y0099221D01*
X0046809Y0100129D01*
X0046809Y0107132D01*
X0045754Y0108187D01*
X0040326Y0108187D01*
X0039300Y0107161D01*
X0038274Y0108187D01*
X0032846Y0108187D01*
X0032359Y0107700D01*
X0031241Y0107700D01*
X0030754Y0108187D01*
X0025326Y0108187D01*
X0024272Y0107132D01*
X0024272Y0106835D01*
X0024206Y0107081D01*
X0023969Y0107492D01*
X0023634Y0107827D01*
X0023223Y0108064D01*
X0022765Y0108187D01*
X0020744Y0108187D01*
X0020744Y0103815D01*
X0020376Y0103815D01*
X0020376Y0108187D01*
X0018354Y0108187D01*
X0017897Y0108064D01*
X0017486Y0107827D01*
X0017151Y0107492D01*
X0016914Y0107081D01*
X0016791Y0106624D01*
X0016791Y0103815D01*
X0020376Y0103815D01*
X0020376Y0103446D01*
X0020744Y0103446D01*
X0020744Y0099075D01*
X0021136Y0099075D01*
X0020531Y0098471D01*
X0020531Y0094208D01*
X0017827Y0091504D01*
X0017096Y0090773D01*
X0016700Y0089817D01*
X0016700Y0089649D01*
X0014476Y0089649D01*
X0014476Y0085075D01*
X0012927Y0085075D01*
X0012927Y0089649D01*
X0010315Y0089649D01*
X0009857Y0089527D01*
X0009447Y0089290D01*
X0009112Y0088954D01*
X0008875Y0088544D01*
X0008752Y0088086D01*
X0008752Y0085075D01*
X0012927Y0085075D01*
X0012927Y0083525D01*
X0014476Y0083525D01*
X0014476Y0078951D01*
X0017045Y0078951D01*
X0017096Y0078827D01*
X0019096Y0076827D01*
X0019827Y0076096D01*
X0020783Y0075700D01*
X0043817Y0075700D01*
X0044773Y0076096D01*
X0045789Y0077515D02*
X0060138Y0077515D01*
X0059032Y0080166D02*
X0059300Y0080300D01*
X0064300Y0080300D01*
X0064300Y0080166D01*
X0073050Y0088916D01*
X0073050Y0098050D01*
X0079300Y0104300D01*
X0079300Y0114300D02*
X0078050Y0114300D01*
X0073050Y0119300D01*
X0065166Y0119300D01*
X0064300Y0120166D01*
X0064300Y0120300D01*
X0055300Y0120300D01*
X0055300Y0124300D01*
X0054898Y0124300D01*
X0059848Y0123872D02*
X0060736Y0123872D01*
X0060138Y0125471D02*
X0059848Y0125471D01*
X0059848Y0127069D02*
X0060138Y0127069D01*
X0060138Y0128668D02*
X0059775Y0128668D01*
X0060138Y0130266D02*
X0045900Y0130266D01*
X0045900Y0129649D02*
X0045900Y0139221D01*
X0046809Y0140129D01*
X0046809Y0143562D01*
X0046900Y0143783D01*
X0046900Y0144817D01*
X0046809Y0145038D01*
X0046809Y0147132D01*
X0045754Y0148187D01*
X0040326Y0148187D01*
X0039300Y0147161D01*
X0038274Y0148187D01*
X0032846Y0148187D01*
X0032359Y0147700D01*
X0031241Y0147700D01*
X0030754Y0148187D01*
X0025326Y0148187D01*
X0024272Y0147132D01*
X0024272Y0146835D01*
X0024206Y0147081D01*
X0023969Y0147492D01*
X0023634Y0147827D01*
X0023223Y0148064D01*
X0022765Y0148187D01*
X0020744Y0148187D01*
X0020744Y0143815D01*
X0020376Y0143815D01*
X0020376Y0148187D01*
X0018354Y0148187D01*
X0017897Y0148064D01*
X0017486Y0147827D01*
X0017151Y0147492D01*
X0016914Y0147081D01*
X0016791Y0146624D01*
X0016791Y0143815D01*
X0020376Y0143815D01*
X0020376Y0143446D01*
X0020744Y0143446D01*
X0020744Y0139075D01*
X0021136Y0139075D01*
X0020531Y0138471D01*
X0020531Y0134208D01*
X0017827Y0131504D01*
X0017096Y0130773D01*
X0016700Y0129817D01*
X0016700Y0129649D01*
X0014476Y0129649D01*
X0014476Y0125075D01*
X0012927Y0125075D01*
X0012927Y0129649D01*
X0010315Y0129649D01*
X0009857Y0129527D01*
X0009447Y0129290D01*
X0009112Y0128954D01*
X0008875Y0128544D01*
X0008752Y0128086D01*
X0008752Y0125075D01*
X0012927Y0125075D01*
X0012927Y0123525D01*
X0014476Y0123525D01*
X0014476Y0118951D01*
X0017045Y0118951D01*
X0017096Y0118827D01*
X0019096Y0116827D01*
X0019827Y0116096D01*
X0020783Y0115700D01*
X0043817Y0115700D01*
X0044773Y0116096D01*
X0045504Y0116827D01*
X0045900Y0117783D01*
X0045900Y0118951D01*
X0047597Y0118951D01*
X0048651Y0120005D01*
X0048651Y0128595D01*
X0047597Y0129649D01*
X0045900Y0129649D01*
X0045900Y0131865D02*
X0060461Y0131865D01*
X0061700Y0133463D02*
X0045900Y0133463D01*
X0045900Y0135062D02*
X0048873Y0135062D01*
X0048875Y0135056D02*
X0049112Y0134646D01*
X0049447Y0134310D01*
X0049857Y0134073D01*
X0050315Y0133951D01*
X0052927Y0133951D01*
X0052927Y0138525D01*
X0054476Y0138525D01*
X0054476Y0133951D01*
X0057088Y0133951D01*
X0057546Y0134073D01*
X0057956Y0134310D01*
X0058292Y0134646D01*
X0058529Y0135056D01*
X0058651Y0135514D01*
X0058651Y0138525D01*
X0054476Y0138525D01*
X0054476Y0140075D01*
X0052927Y0140075D01*
X0052927Y0144649D01*
X0050315Y0144649D01*
X0049857Y0144527D01*
X0049447Y0144290D01*
X0049112Y0143954D01*
X0048875Y0143544D01*
X0048752Y0143086D01*
X0048752Y0140075D01*
X0052927Y0140075D01*
X0052927Y0138525D01*
X0048752Y0138525D01*
X0048752Y0135514D01*
X0048875Y0135056D01*
X0048752Y0136660D02*
X0045900Y0136660D01*
X0045900Y0138259D02*
X0048752Y0138259D01*
X0048752Y0141456D02*
X0046809Y0141456D01*
X0046809Y0143054D02*
X0048752Y0143054D01*
X0046900Y0144653D02*
X0071700Y0144653D01*
X0071700Y0146251D02*
X0046809Y0146251D01*
X0046091Y0147850D02*
X0071700Y0147850D01*
X0071700Y0149448D02*
X0006767Y0149448D01*
X0006772Y0147850D02*
X0017526Y0147850D01*
X0016791Y0146251D02*
X0006777Y0146251D01*
X0006782Y0144653D02*
X0016791Y0144653D01*
X0016791Y0143446D02*
X0016791Y0140638D01*
X0016914Y0140180D01*
X0017151Y0139770D01*
X0017486Y0139434D01*
X0017897Y0139197D01*
X0018354Y0139075D01*
X0020376Y0139075D01*
X0020376Y0143446D01*
X0016791Y0143446D01*
X0016791Y0143054D02*
X0006787Y0143054D01*
X0006792Y0141456D02*
X0016791Y0141456D01*
X0017100Y0139857D02*
X0006797Y0139857D01*
X0006802Y0138259D02*
X0020531Y0138259D01*
X0020531Y0136660D02*
X0006807Y0136660D01*
X0006812Y0135062D02*
X0020531Y0135062D01*
X0019786Y0133463D02*
X0006818Y0133463D01*
X0006823Y0131865D02*
X0018188Y0131865D01*
X0016886Y0130266D02*
X0006828Y0130266D01*
X0006833Y0128668D02*
X0008946Y0128668D01*
X0008752Y0127069D02*
X0006838Y0127069D01*
X0006843Y0125471D02*
X0008752Y0125471D01*
X0008752Y0123525D02*
X0008752Y0120514D01*
X0008875Y0120056D01*
X0009112Y0119646D01*
X0009447Y0119310D01*
X0009857Y0119073D01*
X0010315Y0118951D01*
X0012927Y0118951D01*
X0012927Y0123525D01*
X0008752Y0123525D01*
X0008752Y0122274D02*
X0006853Y0122274D01*
X0006848Y0123872D02*
X0012927Y0123872D01*
X0012927Y0122274D02*
X0014476Y0122274D01*
X0014476Y0120675D02*
X0012927Y0120675D01*
X0012927Y0119077D02*
X0014476Y0119077D01*
X0018445Y0117478D02*
X0006868Y0117478D01*
X0006874Y0115880D02*
X0020349Y0115880D01*
X0021300Y0118300D02*
X0043300Y0118300D01*
X0043300Y0124300D01*
X0043702Y0124300D01*
X0044300Y0124300D01*
X0043300Y0124300D02*
X0043300Y0143300D01*
X0043040Y0143631D01*
X0043040Y0144300D01*
X0044300Y0144300D01*
X0046537Y0139857D02*
X0052927Y0139857D01*
X0053050Y0139952D02*
X0053702Y0139300D01*
X0053050Y0139952D02*
X0053050Y0143050D01*
X0064300Y0154300D01*
X0065166Y0159300D02*
X0064300Y0160166D01*
X0064300Y0160300D01*
X0055300Y0160300D01*
X0055300Y0164300D01*
X0054898Y0164300D01*
X0059848Y0163835D02*
X0060699Y0163835D01*
X0060138Y0165434D02*
X0059848Y0165434D01*
X0059848Y0167032D02*
X0060138Y0167032D01*
X0060138Y0168631D02*
X0059812Y0168631D01*
X0060138Y0170229D02*
X0045900Y0170229D01*
X0045900Y0169649D02*
X0045900Y0179221D01*
X0046809Y0180129D01*
X0046809Y0187132D01*
X0045754Y0188187D01*
X0040326Y0188187D01*
X0039300Y0187161D01*
X0038274Y0188187D01*
X0032846Y0188187D01*
X0032359Y0187700D01*
X0031241Y0187700D01*
X0030754Y0188187D01*
X0025326Y0188187D01*
X0024272Y0187132D01*
X0024272Y0186835D01*
X0024206Y0187081D01*
X0023969Y0187492D01*
X0023634Y0187827D01*
X0023223Y0188064D01*
X0022765Y0188187D01*
X0020744Y0188187D01*
X0020744Y0183815D01*
X0020376Y0183815D01*
X0020376Y0188187D01*
X0018354Y0188187D01*
X0017897Y0188064D01*
X0017486Y0187827D01*
X0017151Y0187492D01*
X0016914Y0187081D01*
X0016791Y0186624D01*
X0016791Y0183815D01*
X0020376Y0183815D01*
X0020376Y0183446D01*
X0020744Y0183446D01*
X0020744Y0179075D01*
X0021136Y0179075D01*
X0020531Y0178471D01*
X0020531Y0174208D01*
X0017827Y0171504D01*
X0017096Y0170773D01*
X0016700Y0169817D01*
X0016700Y0169649D01*
X0014476Y0169649D01*
X0014476Y0165075D01*
X0012927Y0165075D01*
X0012927Y0169649D01*
X0010315Y0169649D01*
X0009857Y0169527D01*
X0009447Y0169290D01*
X0009112Y0168954D01*
X0008875Y0168544D01*
X0008752Y0168086D01*
X0008752Y0165075D01*
X0012927Y0165075D01*
X0012927Y0163525D01*
X0014476Y0163525D01*
X0014476Y0158951D01*
X0017045Y0158951D01*
X0017096Y0158827D01*
X0019096Y0156827D01*
X0019827Y0156096D01*
X0020783Y0155700D01*
X0042817Y0155700D01*
X0043773Y0156096D01*
X0044504Y0156827D01*
X0044900Y0157783D01*
X0044900Y0158951D01*
X0047597Y0158951D01*
X0048651Y0160005D01*
X0048651Y0168595D01*
X0047597Y0169649D01*
X0045900Y0169649D01*
X0045900Y0171828D02*
X0060424Y0171828D01*
X0061700Y0173426D02*
X0045900Y0173426D01*
X0045900Y0175025D02*
X0048893Y0175025D01*
X0048875Y0175056D02*
X0049112Y0174646D01*
X0049447Y0174310D01*
X0049857Y0174073D01*
X0050315Y0173951D01*
X0052927Y0173951D01*
X0052927Y0178525D01*
X0054476Y0178525D01*
X0054476Y0173951D01*
X0057088Y0173951D01*
X0057546Y0174073D01*
X0057956Y0174310D01*
X0058292Y0174646D01*
X0058529Y0175056D01*
X0058651Y0175514D01*
X0058651Y0178525D01*
X0054476Y0178525D01*
X0054476Y0180075D01*
X0052927Y0180075D01*
X0052927Y0184649D01*
X0050315Y0184649D01*
X0049857Y0184527D01*
X0049447Y0184290D01*
X0049112Y0183954D01*
X0048875Y0183544D01*
X0048752Y0183086D01*
X0048752Y0180075D01*
X0052927Y0180075D01*
X0052927Y0178525D01*
X0048752Y0178525D01*
X0048752Y0175514D01*
X0048875Y0175056D01*
X0048752Y0176623D02*
X0045900Y0176623D01*
X0045900Y0178222D02*
X0048752Y0178222D01*
X0048752Y0181419D02*
X0046809Y0181419D01*
X0046809Y0183017D02*
X0048752Y0183017D01*
X0050190Y0184616D02*
X0046809Y0184616D01*
X0046809Y0186214D02*
X0056350Y0186214D01*
X0057088Y0184649D02*
X0054476Y0184649D01*
X0054476Y0180075D01*
X0058651Y0180075D01*
X0058651Y0183086D01*
X0058529Y0183544D01*
X0058292Y0183954D01*
X0057956Y0184290D01*
X0057546Y0184527D01*
X0057088Y0184649D01*
X0057213Y0184616D02*
X0060970Y0184616D01*
X0059949Y0183017D02*
X0058651Y0183017D01*
X0058651Y0181419D02*
X0059949Y0181419D01*
X0059949Y0179820D02*
X0054476Y0179820D01*
X0052927Y0179820D02*
X0046500Y0179820D01*
X0043300Y0183300D02*
X0043040Y0183631D01*
X0043300Y0183300D02*
X0043300Y0164300D01*
X0043702Y0164300D01*
X0043300Y0164300D02*
X0043040Y0164300D01*
X0042300Y0164300D01*
X0042300Y0158300D01*
X0021300Y0158300D01*
X0019300Y0160300D01*
X0019300Y0169300D01*
X0024300Y0174300D01*
X0024300Y0174969D01*
X0024300Y0175300D01*
X0020531Y0175025D02*
X0006685Y0175025D01*
X0006680Y0176623D02*
X0020531Y0176623D01*
X0020531Y0178222D02*
X0006675Y0178222D01*
X0006670Y0179820D02*
X0017122Y0179820D01*
X0017151Y0179770D02*
X0017486Y0179434D01*
X0017897Y0179197D01*
X0018354Y0179075D01*
X0020376Y0179075D01*
X0020376Y0183446D01*
X0016791Y0183446D01*
X0016791Y0180638D01*
X0016914Y0180180D01*
X0017151Y0179770D01*
X0016791Y0181419D02*
X0006665Y0181419D01*
X0006660Y0183017D02*
X0016791Y0183017D01*
X0016791Y0184616D02*
X0006655Y0184616D01*
X0006650Y0186214D02*
X0016791Y0186214D01*
X0017472Y0187813D02*
X0006644Y0187813D01*
X0006639Y0189411D02*
X0052028Y0189411D01*
X0051355Y0191010D02*
X0006634Y0191010D01*
X0006629Y0192608D02*
X0050701Y0192608D01*
X0050701Y0194207D02*
X0006624Y0194207D01*
X0006619Y0195805D02*
X0050701Y0195805D01*
X0051278Y0197404D02*
X0006614Y0197404D01*
X0006609Y0199002D02*
X0051940Y0199002D01*
X0053626Y0187813D02*
X0046128Y0187813D01*
X0039952Y0187813D02*
X0038648Y0187813D01*
X0035300Y0184300D02*
X0035560Y0183631D01*
X0032472Y0187813D02*
X0031128Y0187813D01*
X0028300Y0184300D02*
X0028040Y0183631D01*
X0029550Y0183300D01*
X0024952Y0187813D02*
X0023648Y0187813D01*
X0020744Y0187813D02*
X0020376Y0187813D01*
X0020376Y0186214D02*
X0020744Y0186214D01*
X0020744Y0184616D02*
X0020376Y0184616D01*
X0020376Y0183017D02*
X0020744Y0183017D01*
X0020744Y0181419D02*
X0020376Y0181419D01*
X0020376Y0179820D02*
X0020744Y0179820D01*
X0019749Y0173426D02*
X0006690Y0173426D01*
X0006695Y0171828D02*
X0018151Y0171828D01*
X0016871Y0170229D02*
X0006700Y0170229D01*
X0006706Y0168631D02*
X0008925Y0168631D01*
X0008752Y0167032D02*
X0006711Y0167032D01*
X0006716Y0165434D02*
X0008752Y0165434D01*
X0008752Y0163525D02*
X0008752Y0160514D01*
X0008875Y0160056D01*
X0009112Y0159646D01*
X0009447Y0159310D01*
X0009857Y0159073D01*
X0010315Y0158951D01*
X0012927Y0158951D01*
X0012927Y0163525D01*
X0008752Y0163525D01*
X0008752Y0162237D02*
X0006726Y0162237D01*
X0006721Y0163835D02*
X0012927Y0163835D01*
X0012927Y0162237D02*
X0014476Y0162237D01*
X0014476Y0160638D02*
X0012927Y0160638D01*
X0012927Y0159039D02*
X0014476Y0159039D01*
X0018482Y0157441D02*
X0006741Y0157441D01*
X0006736Y0159039D02*
X0009984Y0159039D01*
X0008752Y0160638D02*
X0006731Y0160638D01*
X0006746Y0155842D02*
X0020439Y0155842D01*
X0020376Y0147850D02*
X0020744Y0147850D01*
X0020744Y0146251D02*
X0020376Y0146251D01*
X0020376Y0144653D02*
X0020744Y0144653D01*
X0020744Y0143054D02*
X0020376Y0143054D01*
X0020376Y0141456D02*
X0020744Y0141456D01*
X0020744Y0139857D02*
X0020376Y0139857D01*
X0024300Y0135300D02*
X0024300Y0134969D01*
X0024300Y0134300D01*
X0019300Y0129300D01*
X0019300Y0120300D01*
X0021300Y0118300D01*
X0024898Y0124300D02*
X0025300Y0124300D01*
X0026675Y0125675D01*
X0014476Y0125471D02*
X0012927Y0125471D01*
X0012927Y0127069D02*
X0014476Y0127069D01*
X0014476Y0128668D02*
X0012927Y0128668D01*
X0008752Y0120675D02*
X0006858Y0120675D01*
X0006863Y0119077D02*
X0009852Y0119077D01*
X0006879Y0114281D02*
X0071750Y0114281D01*
X0071750Y0112683D02*
X0006884Y0112683D01*
X0006889Y0111084D02*
X0071750Y0111084D01*
X0071750Y0109486D02*
X0006894Y0109486D01*
X0006899Y0107887D02*
X0017590Y0107887D01*
X0016791Y0106289D02*
X0006904Y0106289D01*
X0006909Y0104690D02*
X0016791Y0104690D01*
X0016791Y0103446D02*
X0016791Y0100638D01*
X0016914Y0100180D01*
X0017151Y0099770D01*
X0017486Y0099434D01*
X0017897Y0099197D01*
X0018354Y0099075D01*
X0020376Y0099075D01*
X0020376Y0103446D01*
X0016791Y0103446D01*
X0016791Y0103092D02*
X0006914Y0103092D01*
X0006919Y0101493D02*
X0016791Y0101493D01*
X0017079Y0099895D02*
X0006924Y0099895D01*
X0006930Y0098296D02*
X0020531Y0098296D01*
X0020531Y0096698D02*
X0006935Y0096698D01*
X0006940Y0095099D02*
X0020531Y0095099D01*
X0019824Y0093501D02*
X0006945Y0093501D01*
X0006950Y0091902D02*
X0018225Y0091902D01*
X0016901Y0090303D02*
X0006955Y0090303D01*
X0006960Y0088705D02*
X0008968Y0088705D01*
X0008752Y0087106D02*
X0006965Y0087106D01*
X0006970Y0085508D02*
X0008752Y0085508D01*
X0008752Y0083525D02*
X0008752Y0080514D01*
X0008875Y0080056D01*
X0009112Y0079646D01*
X0009447Y0079310D01*
X0009857Y0079073D01*
X0010315Y0078951D01*
X0012927Y0078951D01*
X0012927Y0083525D01*
X0008752Y0083525D01*
X0008752Y0082311D02*
X0006980Y0082311D01*
X0006975Y0083909D02*
X0012927Y0083909D01*
X0012927Y0082311D02*
X0014476Y0082311D01*
X0014476Y0080712D02*
X0012927Y0080712D01*
X0012927Y0079114D02*
X0014476Y0079114D01*
X0018408Y0077515D02*
X0006996Y0077515D01*
X0007001Y0075917D02*
X0020259Y0075917D01*
X0021300Y0078300D02*
X0043300Y0078300D01*
X0043300Y0084300D01*
X0043702Y0084300D01*
X0043300Y0084300D02*
X0043300Y0103300D01*
X0043040Y0103631D01*
X0046809Y0103092D02*
X0048753Y0103092D01*
X0048752Y0103086D02*
X0048752Y0100075D01*
X0052927Y0100075D01*
X0052927Y0104649D01*
X0050315Y0104649D01*
X0049857Y0104527D01*
X0049447Y0104290D01*
X0049112Y0103954D01*
X0048875Y0103544D01*
X0048752Y0103086D01*
X0048752Y0101493D02*
X0046809Y0101493D01*
X0046574Y0099895D02*
X0052927Y0099895D01*
X0052927Y0100075D02*
X0052927Y0098525D01*
X0054476Y0098525D01*
X0054476Y0093951D01*
X0057088Y0093951D01*
X0057546Y0094073D01*
X0057956Y0094310D01*
X0058292Y0094646D01*
X0058529Y0095056D01*
X0058651Y0095514D01*
X0058651Y0098525D01*
X0054476Y0098525D01*
X0054476Y0100075D01*
X0052927Y0100075D01*
X0052927Y0101493D02*
X0054476Y0101493D01*
X0054476Y0100075D02*
X0054476Y0104649D01*
X0057088Y0104649D01*
X0057546Y0104527D01*
X0057956Y0104290D01*
X0058292Y0103954D01*
X0058529Y0103544D01*
X0058651Y0103086D01*
X0058651Y0100075D01*
X0054476Y0100075D01*
X0054476Y0099895D02*
X0059949Y0099895D01*
X0059949Y0101493D02*
X0058651Y0101493D01*
X0058650Y0103092D02*
X0059949Y0103092D01*
X0059949Y0098296D02*
X0058651Y0098296D01*
X0058651Y0096698D02*
X0059949Y0096698D01*
X0059949Y0095099D02*
X0058540Y0095099D01*
X0060498Y0091902D02*
X0045900Y0091902D01*
X0045900Y0093501D02*
X0061700Y0093501D01*
X0060138Y0090303D02*
X0045900Y0090303D01*
X0048541Y0088705D02*
X0050059Y0088705D01*
X0049949Y0087106D02*
X0048651Y0087106D01*
X0048651Y0085508D02*
X0049949Y0085508D01*
X0049949Y0083909D02*
X0048651Y0083909D01*
X0048651Y0082311D02*
X0049949Y0082311D01*
X0049949Y0080712D02*
X0048651Y0080712D01*
X0047760Y0079114D02*
X0050840Y0079114D01*
X0054898Y0084300D02*
X0059032Y0080166D01*
X0059848Y0083909D02*
X0060773Y0083909D01*
X0060138Y0085508D02*
X0059848Y0085508D01*
X0059848Y0087106D02*
X0060138Y0087106D01*
X0060138Y0088705D02*
X0059738Y0088705D01*
X0064300Y0088434D02*
X0064300Y0099300D01*
X0064898Y0099300D01*
X0069848Y0099895D02*
X0071218Y0099895D01*
X0071750Y0101493D02*
X0069848Y0101493D01*
X0069848Y0103092D02*
X0071750Y0103092D01*
X0071750Y0104690D02*
X0046809Y0104690D01*
X0046809Y0106289D02*
X0071750Y0106289D01*
X0071750Y0107887D02*
X0046054Y0107887D01*
X0040027Y0107887D02*
X0038573Y0107887D01*
X0035300Y0104300D02*
X0035560Y0103631D01*
X0032546Y0107887D02*
X0031054Y0107887D01*
X0028300Y0104300D02*
X0028040Y0103631D01*
X0029550Y0103300D01*
X0025027Y0107887D02*
X0023529Y0107887D01*
X0020744Y0107887D02*
X0020376Y0107887D01*
X0020376Y0106289D02*
X0020744Y0106289D01*
X0020744Y0104690D02*
X0020376Y0104690D01*
X0020376Y0103092D02*
X0020744Y0103092D01*
X0020744Y0101493D02*
X0020376Y0101493D01*
X0020376Y0099895D02*
X0020744Y0099895D01*
X0024300Y0095300D02*
X0024300Y0094969D01*
X0024300Y0094300D01*
X0019300Y0089300D01*
X0019300Y0080300D01*
X0021300Y0078300D01*
X0024898Y0084300D02*
X0025300Y0084300D01*
X0028300Y0087300D01*
X0014476Y0087106D02*
X0012927Y0087106D01*
X0012927Y0085508D02*
X0014476Y0085508D01*
X0014476Y0088705D02*
X0012927Y0088705D01*
X0008752Y0080712D02*
X0006986Y0080712D01*
X0006991Y0079114D02*
X0009787Y0079114D01*
X0007037Y0064727D02*
X0074884Y0064727D01*
X0073951Y0063129D02*
X0007042Y0063129D01*
X0007047Y0061530D02*
X0056640Y0061530D01*
X0054832Y0059932D02*
X0007052Y0059932D01*
X0007057Y0058333D02*
X0053016Y0058333D01*
X0051199Y0056735D02*
X0007062Y0056735D01*
X0007067Y0055136D02*
X0049383Y0055136D01*
X0047566Y0053538D02*
X0007072Y0053538D01*
X0007077Y0051939D02*
X0045750Y0051939D01*
X0043933Y0050341D02*
X0007082Y0050341D01*
X0007087Y0048742D02*
X0042117Y0048742D01*
X0040300Y0047144D02*
X0007093Y0047144D01*
X0007098Y0045545D02*
X0038484Y0045545D01*
X0036667Y0043947D02*
X0007103Y0043947D01*
X0007108Y0042348D02*
X0034851Y0042348D01*
X0033034Y0040750D02*
X0007113Y0040750D01*
X0007118Y0039151D02*
X0031218Y0039151D01*
X0029401Y0037553D02*
X0007123Y0037553D01*
X0007128Y0035954D02*
X0027585Y0035954D01*
X0025768Y0034356D02*
X0007133Y0034356D01*
X0007138Y0032757D02*
X0014477Y0032757D01*
X0013076Y0031159D02*
X0007143Y0031159D01*
X0007179Y0019969D02*
X0010308Y0019969D01*
X0009178Y0018370D02*
X0007184Y0018370D01*
X0007189Y0016772D02*
X0008516Y0016772D01*
X0008201Y0015173D02*
X0007194Y0015173D01*
X0007199Y0013575D02*
X0008201Y0013575D01*
X0008455Y0011976D02*
X0007205Y0011976D01*
X0007210Y0010378D02*
X0009117Y0010378D01*
X0010159Y0008779D02*
X0007215Y0008779D01*
X0016800Y0031159D02*
X0016800Y0031159D01*
X0016800Y0032757D02*
X0016800Y0032757D01*
X0019123Y0032757D02*
X0021871Y0032757D01*
X0020565Y0031159D02*
X0020524Y0031159D01*
X0027249Y0026363D02*
X0028851Y0026363D01*
X0031800Y0029300D02*
X0058050Y0029300D01*
X0076800Y0048050D01*
X0070846Y0037553D02*
X0069980Y0037553D01*
X0070846Y0035954D02*
X0068381Y0035954D01*
X0066783Y0034356D02*
X0070846Y0034356D01*
X0070846Y0032757D02*
X0065184Y0032757D01*
X0063586Y0031159D02*
X0070846Y0031159D01*
X0081568Y0026363D02*
X0034749Y0026363D01*
X0068462Y0077515D02*
X0071750Y0077515D01*
X0071750Y0079114D02*
X0068462Y0079114D01*
X0068523Y0080712D02*
X0071750Y0080712D01*
X0071750Y0082311D02*
X0070122Y0082311D01*
X0071720Y0083909D02*
X0071750Y0083909D01*
X0069162Y0088705D02*
X0068462Y0088705D01*
X0068462Y0090303D02*
X0070450Y0090303D01*
X0070450Y0091902D02*
X0068102Y0091902D01*
X0066900Y0093501D02*
X0070450Y0093501D01*
X0070450Y0095099D02*
X0069848Y0095099D01*
X0069848Y0096698D02*
X0070450Y0096698D01*
X0070450Y0098296D02*
X0069848Y0098296D01*
X0071750Y0115880D02*
X0044251Y0115880D01*
X0045774Y0117478D02*
X0060138Y0117478D01*
X0067864Y0123872D02*
X0071750Y0123872D01*
X0071750Y0122274D02*
X0068462Y0122274D01*
X0068462Y0125471D02*
X0071750Y0125471D01*
X0071750Y0127069D02*
X0068462Y0127069D01*
X0068462Y0128668D02*
X0071750Y0128668D01*
X0071750Y0130266D02*
X0068462Y0130266D01*
X0068139Y0131865D02*
X0071750Y0131865D01*
X0071750Y0133463D02*
X0066900Y0133463D01*
X0069848Y0135062D02*
X0071750Y0135062D01*
X0071750Y0136660D02*
X0069848Y0136660D01*
X0069848Y0138259D02*
X0071750Y0138259D01*
X0071700Y0139857D02*
X0069848Y0139857D01*
X0069848Y0141456D02*
X0071700Y0141456D01*
X0071700Y0143054D02*
X0069848Y0143054D01*
X0074300Y0139300D02*
X0074300Y0159300D01*
X0065166Y0159300D01*
X0067901Y0163835D02*
X0071750Y0163835D01*
X0071750Y0162237D02*
X0068462Y0162237D01*
X0068462Y0165434D02*
X0071750Y0165434D01*
X0071750Y0167032D02*
X0068462Y0167032D01*
X0068462Y0168631D02*
X0071750Y0168631D01*
X0071750Y0170229D02*
X0068462Y0170229D01*
X0068176Y0171828D02*
X0071750Y0171828D01*
X0071750Y0173426D02*
X0066900Y0173426D01*
X0069848Y0175025D02*
X0071750Y0175025D01*
X0071750Y0176623D02*
X0069848Y0176623D01*
X0069848Y0178222D02*
X0071750Y0178222D01*
X0071750Y0179820D02*
X0069848Y0179820D01*
X0069848Y0181419D02*
X0071750Y0181419D01*
X0071750Y0183017D02*
X0069848Y0183017D01*
X0068827Y0184616D02*
X0071750Y0184616D01*
X0071750Y0186214D02*
X0062250Y0186214D01*
X0064974Y0187813D02*
X0071750Y0187813D01*
X0071750Y0189411D02*
X0066572Y0189411D01*
X0067245Y0191010D02*
X0072403Y0191010D01*
X0067899Y0192608D02*
X0105701Y0192608D01*
X0105701Y0194207D02*
X0067899Y0194207D01*
X0067899Y0195805D02*
X0105701Y0195805D01*
X0106278Y0197404D02*
X0067322Y0197404D01*
X0066660Y0199002D02*
X0106940Y0199002D01*
X0111350Y0186214D02*
X0084053Y0186214D01*
X0084053Y0184616D02*
X0134547Y0184616D01*
X0134547Y0186214D02*
X0117250Y0186214D01*
X0134547Y0183017D02*
X0084053Y0183017D01*
X0084053Y0181419D02*
X0134547Y0181419D01*
X0135329Y0179820D02*
X0083271Y0179820D01*
X0082100Y0178222D02*
X0136500Y0178222D01*
X0137331Y0179053D02*
X0134547Y0176269D01*
X0134547Y0174484D01*
X0139116Y0174484D01*
X0139116Y0179053D01*
X0137331Y0179053D01*
X0139116Y0178222D02*
X0139484Y0178222D01*
X0139484Y0176623D02*
X0139116Y0176623D01*
X0139116Y0175025D02*
X0139484Y0175025D01*
X0139116Y0174116D02*
X0134547Y0174116D01*
X0134547Y0172331D01*
X0137331Y0169547D01*
X0139116Y0169547D01*
X0139116Y0174116D01*
X0139116Y0173426D02*
X0139484Y0173426D01*
X0139484Y0171828D02*
X0139116Y0171828D01*
X0139116Y0170229D02*
X0139484Y0170229D01*
X0136909Y0168631D02*
X0081691Y0168631D01*
X0081950Y0170229D02*
X0136650Y0170229D01*
X0135051Y0171828D02*
X0083549Y0171828D01*
X0084053Y0173426D02*
X0134547Y0173426D01*
X0134547Y0175025D02*
X0084053Y0175025D01*
X0083698Y0176623D02*
X0134902Y0176623D01*
X0135311Y0167032D02*
X0083289Y0167032D01*
X0084053Y0165434D02*
X0134547Y0165434D01*
X0134547Y0163835D02*
X0084053Y0163835D01*
X0083958Y0162237D02*
X0134642Y0162237D01*
X0136241Y0160638D02*
X0082359Y0160638D01*
X0081269Y0159053D02*
X0079484Y0159053D01*
X0079484Y0154484D01*
X0084053Y0154484D01*
X0084053Y0156269D01*
X0081269Y0159053D01*
X0081282Y0159039D02*
X0137318Y0159039D01*
X0135720Y0157441D02*
X0082880Y0157441D01*
X0084053Y0155842D02*
X0134547Y0155842D01*
X0134436Y0154244D02*
X0079484Y0154244D01*
X0079484Y0155842D02*
X0079116Y0155842D01*
X0079116Y0157441D02*
X0079484Y0157441D01*
X0079484Y0159039D02*
X0079116Y0159039D01*
X0077318Y0159039D02*
X0076900Y0159039D01*
X0071700Y0155842D02*
X0043161Y0155842D01*
X0044758Y0157441D02*
X0060138Y0157441D01*
X0064300Y0168434D02*
X0064300Y0179300D01*
X0064898Y0179300D01*
X0059949Y0178222D02*
X0058651Y0178222D01*
X0058651Y0176623D02*
X0059949Y0176623D01*
X0059949Y0175025D02*
X0058510Y0175025D01*
X0054476Y0175025D02*
X0052927Y0175025D01*
X0052927Y0176623D02*
X0054476Y0176623D01*
X0054476Y0178222D02*
X0052927Y0178222D01*
X0052927Y0181419D02*
X0054476Y0181419D01*
X0054476Y0183017D02*
X0052927Y0183017D01*
X0052927Y0184616D02*
X0054476Y0184616D01*
X0049985Y0168631D02*
X0048615Y0168631D01*
X0048651Y0167032D02*
X0049949Y0167032D01*
X0049949Y0165434D02*
X0048651Y0165434D01*
X0048651Y0163835D02*
X0049949Y0163835D01*
X0049949Y0162237D02*
X0048651Y0162237D01*
X0048651Y0160638D02*
X0049949Y0160638D01*
X0050915Y0159039D02*
X0047685Y0159039D01*
X0039989Y0147850D02*
X0038611Y0147850D01*
X0035300Y0144300D02*
X0035560Y0143631D01*
X0032509Y0147850D02*
X0031091Y0147850D01*
X0028300Y0144300D02*
X0028040Y0143631D01*
X0029550Y0143300D01*
X0024989Y0147850D02*
X0023594Y0147850D01*
X0024898Y0164300D02*
X0025300Y0164300D01*
X0028300Y0167300D01*
X0014476Y0167032D02*
X0012927Y0167032D01*
X0012927Y0165434D02*
X0014476Y0165434D01*
X0014476Y0168631D02*
X0012927Y0168631D01*
X0006751Y0154244D02*
X0071700Y0154244D01*
X0071700Y0152645D02*
X0006756Y0152645D01*
X0006762Y0151047D02*
X0071700Y0151047D01*
X0076900Y0149448D02*
X0129640Y0149448D01*
X0131239Y0151047D02*
X0082768Y0151047D01*
X0084053Y0152645D02*
X0132837Y0152645D01*
X0141282Y0159039D02*
X0141750Y0159039D01*
X0141691Y0168631D02*
X0141750Y0168631D01*
X0079484Y0152645D02*
X0079116Y0152645D01*
X0079116Y0151047D02*
X0079484Y0151047D01*
X0074300Y0139300D02*
X0079300Y0134300D01*
X0064898Y0139300D02*
X0064300Y0139300D01*
X0064300Y0128434D01*
X0059949Y0135062D02*
X0058530Y0135062D01*
X0058651Y0136660D02*
X0059949Y0136660D01*
X0059949Y0138259D02*
X0058651Y0138259D01*
X0058651Y0140075D02*
X0058651Y0143086D01*
X0058529Y0143544D01*
X0058292Y0143954D01*
X0057956Y0144290D01*
X0057546Y0144527D01*
X0057088Y0144649D01*
X0054476Y0144649D01*
X0054476Y0140075D01*
X0058651Y0140075D01*
X0059949Y0139857D02*
X0054476Y0139857D01*
X0054476Y0138259D02*
X0052927Y0138259D01*
X0052927Y0136660D02*
X0054476Y0136660D01*
X0054476Y0135062D02*
X0052927Y0135062D01*
X0052927Y0141456D02*
X0054476Y0141456D01*
X0054476Y0143054D02*
X0052927Y0143054D01*
X0058651Y0143054D02*
X0059949Y0143054D01*
X0059949Y0141456D02*
X0058651Y0141456D01*
X0050022Y0128668D02*
X0048578Y0128668D01*
X0048651Y0127069D02*
X0049949Y0127069D01*
X0049949Y0125471D02*
X0048651Y0125471D01*
X0048651Y0123872D02*
X0049949Y0123872D01*
X0049949Y0122274D02*
X0048651Y0122274D01*
X0048651Y0120675D02*
X0049949Y0120675D01*
X0050877Y0119077D02*
X0047723Y0119077D01*
X0052927Y0103092D02*
X0054476Y0103092D01*
X0054476Y0098296D02*
X0052927Y0098296D01*
X0052927Y0098525D02*
X0052927Y0093951D01*
X0050315Y0093951D01*
X0049857Y0094073D01*
X0049447Y0094310D01*
X0049112Y0094646D01*
X0048875Y0095056D01*
X0048752Y0095514D01*
X0048752Y0098525D01*
X0052927Y0098525D01*
X0052927Y0096698D02*
X0054476Y0096698D01*
X0054476Y0095099D02*
X0052927Y0095099D01*
X0048863Y0095099D02*
X0045900Y0095099D01*
X0045900Y0096698D02*
X0048752Y0096698D01*
X0048752Y0098296D02*
X0045900Y0098296D01*
X0092505Y0043947D02*
X0146203Y0043947D01*
X0146198Y0045545D02*
X0142333Y0045545D01*
X0141288Y0044500D02*
X0144100Y0047312D01*
X0144100Y0051288D01*
X0141288Y0054100D01*
X0137312Y0054100D01*
X0134500Y0051288D01*
X0134500Y0047312D01*
X0137312Y0044500D01*
X0141288Y0044500D01*
X0143932Y0047144D02*
X0146193Y0047144D01*
X0146188Y0048742D02*
X0144100Y0048742D01*
X0144100Y0050341D02*
X0146183Y0050341D01*
X0146178Y0051939D02*
X0143449Y0051939D01*
X0141850Y0053538D02*
X0146173Y0053538D01*
X0146168Y0055136D02*
X0141791Y0055136D01*
X0143433Y0056735D02*
X0146163Y0056735D01*
X0146158Y0058333D02*
X0144095Y0058333D01*
X0144100Y0059932D02*
X0146153Y0059932D01*
X0146147Y0061530D02*
X0143572Y0061530D01*
X0142259Y0063129D02*
X0146142Y0063129D01*
X0146137Y0064727D02*
X0132700Y0064727D01*
X0132700Y0063129D02*
X0136341Y0063129D01*
X0132700Y0066326D02*
X0146132Y0066326D01*
X0136809Y0055136D02*
X0131924Y0055136D01*
X0131288Y0054100D02*
X0127312Y0054100D01*
X0124500Y0051288D01*
X0124500Y0047312D01*
X0127312Y0044500D01*
X0131288Y0044500D01*
X0134100Y0047312D01*
X0134100Y0051288D01*
X0131288Y0054100D01*
X0131850Y0053538D02*
X0136750Y0053538D01*
X0135151Y0051939D02*
X0133449Y0051939D01*
X0134100Y0050341D02*
X0134500Y0050341D01*
X0134500Y0048742D02*
X0134100Y0048742D01*
X0133932Y0047144D02*
X0134668Y0047144D01*
X0136267Y0045545D02*
X0132333Y0045545D01*
X0126267Y0045545D02*
X0122333Y0045545D01*
X0121288Y0044500D02*
X0124100Y0047312D01*
X0124100Y0051288D01*
X0121288Y0054100D01*
X0117312Y0054100D01*
X0114500Y0051288D01*
X0114500Y0047312D01*
X0117312Y0044500D01*
X0121288Y0044500D01*
X0123932Y0047144D02*
X0124668Y0047144D01*
X0124500Y0048742D02*
X0124100Y0048742D01*
X0124100Y0050341D02*
X0124500Y0050341D01*
X0125151Y0051939D02*
X0123449Y0051939D01*
X0121850Y0053538D02*
X0126750Y0053538D01*
X0126676Y0055136D02*
X0121924Y0055136D01*
X0116676Y0055136D02*
X0103695Y0055136D01*
X0102096Y0053538D02*
X0116750Y0053538D01*
X0115151Y0051939D02*
X0100498Y0051939D01*
X0098899Y0050341D02*
X0114500Y0050341D01*
X0114500Y0048742D02*
X0097301Y0048742D01*
X0095702Y0047144D02*
X0114668Y0047144D01*
X0116267Y0045545D02*
X0094103Y0045545D01*
X0088001Y0035393D02*
X0087300Y0032300D01*
X0081757Y0019969D02*
X0106843Y0019969D01*
X0106280Y0018370D02*
X0082320Y0018370D01*
X0082320Y0016772D02*
X0106280Y0016772D01*
X0106280Y0015173D02*
X0082320Y0015173D01*
X0082320Y0013575D02*
X0106280Y0013575D01*
X0106280Y0011976D02*
X0082320Y0011976D01*
X0082320Y0010378D02*
X0106280Y0010378D01*
X0106280Y0008779D02*
X0082320Y0008779D01*
X0103987Y0021568D02*
X0129406Y0021568D01*
X0127808Y0019969D02*
X0117190Y0019969D01*
X0117754Y0018370D02*
X0126678Y0018370D01*
X0126016Y0016772D02*
X0117754Y0016772D01*
X0117754Y0015173D02*
X0125701Y0015173D01*
X0125701Y0013575D02*
X0117754Y0013575D01*
X0117754Y0011976D02*
X0125955Y0011976D01*
X0126617Y0010378D02*
X0117754Y0010378D01*
X0117754Y0008779D02*
X0127659Y0008779D01*
X0139194Y0021568D02*
X0146275Y0021568D01*
X0146270Y0023166D02*
X0106336Y0023166D01*
X0107033Y0024765D02*
X0146265Y0024765D01*
X0146259Y0026363D02*
X0107032Y0026363D01*
X0140792Y0019969D02*
X0146280Y0019969D01*
X0146285Y0018370D02*
X0141922Y0018370D01*
X0142584Y0016772D02*
X0146290Y0016772D01*
X0146295Y0015173D02*
X0142899Y0015173D01*
X0142899Y0013575D02*
X0146300Y0013575D01*
X0146305Y0011976D02*
X0142645Y0011976D01*
X0141983Y0010378D02*
X0146310Y0010378D01*
X0146315Y0008779D02*
X0140941Y0008779D01*
X0076909Y0168631D02*
X0076850Y0168631D01*
D24*
X0079300Y0154300D02*
X0085550Y0154300D01*
X0105550Y0174300D01*
X0139300Y0174300D01*
X0139300Y0154300D02*
X0129300Y0144300D01*
X0129300Y0059300D01*
X0139300Y0059300D01*
X0129300Y0059300D02*
X0119300Y0059300D01*
X0103050Y0059300D01*
X0086800Y0043050D01*
X0086800Y0031800D01*
X0087300Y0032300D01*
X0087300Y0040300D01*
X0038631Y0094300D02*
X0039300Y0094969D01*
X0038631Y0094300D02*
X0034300Y0094300D01*
X0029550Y0087702D02*
X0024898Y0084300D01*
X0029550Y0087702D02*
X0029550Y0103300D01*
X0028709Y0104300D02*
X0028040Y0103631D01*
X0028709Y0104300D02*
X0035300Y0104300D01*
X0026675Y0125675D02*
X0029550Y0127300D01*
X0029550Y0143300D01*
X0028709Y0144300D02*
X0028040Y0143631D01*
X0028709Y0144300D02*
X0035300Y0144300D01*
X0034300Y0134300D02*
X0038631Y0134300D01*
X0039300Y0134969D01*
X0024898Y0164300D02*
X0029550Y0167702D01*
X0029550Y0183300D01*
X0028709Y0184300D02*
X0028040Y0183631D01*
X0028709Y0184300D02*
X0035300Y0184300D01*
X0034300Y0174300D02*
X0038631Y0174300D01*
X0039300Y0174969D01*
D25*
X0034300Y0174300D03*
X0048050Y0150550D03*
X0034300Y0134300D03*
X0050550Y0110550D03*
X0034300Y0094300D03*
X0033050Y0056800D03*
X0053050Y0019300D03*
X0124300Y0029300D03*
X0014300Y0193050D03*
M02*
