G75*
%MOIN*%
%OFA0B0*%
%FSLAX25Y25*%
%IPPOS*%
%LPD*%
%AMOC8*
5,1,8,0,0,1.08239X$1,22.5*
%
%ADD10C,0.13198*%
%ADD11R,0.06506X0.06506*%
%ADD12OC8,0.06506*%
%ADD13C,0.06600*%
%ADD14OC8,0.06600*%
%ADD15C,0.05324*%
%ADD16C,0.04143*%
%ADD17C,0.04362*%
D10*
X0016800Y0014300D03*
X0134300Y0014300D03*
X0114300Y0194300D03*
X0059300Y0194300D03*
D11*
X0079300Y0184300D03*
X0139300Y0184300D03*
D12*
X0139300Y0174300D03*
X0139300Y0164300D03*
X0139300Y0154300D03*
X0139300Y0144300D03*
X0139300Y0134300D03*
X0139300Y0124300D03*
X0139300Y0114300D03*
X0139300Y0104300D03*
X0139300Y0094300D03*
X0139300Y0084300D03*
X0139300Y0074300D03*
X0079300Y0074300D03*
X0079300Y0084300D03*
X0079300Y0094300D03*
X0079300Y0104300D03*
X0079300Y0114300D03*
X0079300Y0124300D03*
X0079300Y0134300D03*
X0079300Y0144300D03*
X0079300Y0154300D03*
X0079300Y0164300D03*
X0079300Y0174300D03*
D13*
X0139300Y0059300D03*
D14*
X0139300Y0049300D03*
X0129300Y0049300D03*
X0129300Y0059300D03*
X0119300Y0059300D03*
X0119300Y0049300D03*
D15*
X0031800Y0029300D03*
X0024300Y0029300D03*
X0016800Y0029300D03*
D16*
X0085639Y0025550D03*
X0102961Y0025550D03*
D17*
X0124300Y0029300D03*
X0053050Y0019300D03*
X0033050Y0056800D03*
X0034300Y0094300D03*
X0050550Y0110550D03*
X0034300Y0134300D03*
X0048050Y0150550D03*
X0034300Y0174300D03*
X0014300Y0193050D03*
M02*
