G75*
%MOIN*%
%OFA0B0*%
%FSLAX25Y25*%
%IPPOS*%
%LPD*%
%AMOC8*
5,1,8,0,0,1.08239X$1,22.5*
%
%ADD10C,0.00000*%
%ADD11C,0.00500*%
%ADD12R,0.05906X0.05906*%
%ADD13OC8,0.05906*%
%ADD14C,0.06000*%
%ADD15OC8,0.06000*%
%ADD16C,0.04724*%
%ADD17C,0.03762*%
%ADD18C,0.03200*%
D10*
X0004925Y0005550D02*
X0004300Y0201761D01*
X0148001Y0201761D01*
X0148626Y0005550D01*
X0004925Y0005550D01*
X0010501Y0014300D02*
X0010503Y0014458D01*
X0010509Y0014616D01*
X0010519Y0014774D01*
X0010533Y0014932D01*
X0010551Y0015089D01*
X0010572Y0015246D01*
X0010598Y0015402D01*
X0010628Y0015558D01*
X0010661Y0015713D01*
X0010699Y0015866D01*
X0010740Y0016019D01*
X0010785Y0016171D01*
X0010834Y0016322D01*
X0010887Y0016471D01*
X0010943Y0016619D01*
X0011003Y0016765D01*
X0011067Y0016910D01*
X0011135Y0017053D01*
X0011206Y0017195D01*
X0011280Y0017335D01*
X0011358Y0017472D01*
X0011440Y0017608D01*
X0011524Y0017742D01*
X0011613Y0017873D01*
X0011704Y0018002D01*
X0011799Y0018129D01*
X0011896Y0018254D01*
X0011997Y0018376D01*
X0012101Y0018495D01*
X0012208Y0018612D01*
X0012318Y0018726D01*
X0012431Y0018837D01*
X0012546Y0018946D01*
X0012664Y0019051D01*
X0012785Y0019153D01*
X0012908Y0019253D01*
X0013034Y0019349D01*
X0013162Y0019442D01*
X0013292Y0019532D01*
X0013425Y0019618D01*
X0013560Y0019702D01*
X0013696Y0019781D01*
X0013835Y0019858D01*
X0013976Y0019930D01*
X0014118Y0020000D01*
X0014262Y0020065D01*
X0014408Y0020127D01*
X0014555Y0020185D01*
X0014704Y0020240D01*
X0014854Y0020291D01*
X0015005Y0020338D01*
X0015157Y0020381D01*
X0015310Y0020420D01*
X0015465Y0020456D01*
X0015620Y0020487D01*
X0015776Y0020515D01*
X0015932Y0020539D01*
X0016089Y0020559D01*
X0016247Y0020575D01*
X0016404Y0020587D01*
X0016563Y0020595D01*
X0016721Y0020599D01*
X0016879Y0020599D01*
X0017037Y0020595D01*
X0017196Y0020587D01*
X0017353Y0020575D01*
X0017511Y0020559D01*
X0017668Y0020539D01*
X0017824Y0020515D01*
X0017980Y0020487D01*
X0018135Y0020456D01*
X0018290Y0020420D01*
X0018443Y0020381D01*
X0018595Y0020338D01*
X0018746Y0020291D01*
X0018896Y0020240D01*
X0019045Y0020185D01*
X0019192Y0020127D01*
X0019338Y0020065D01*
X0019482Y0020000D01*
X0019624Y0019930D01*
X0019765Y0019858D01*
X0019904Y0019781D01*
X0020040Y0019702D01*
X0020175Y0019618D01*
X0020308Y0019532D01*
X0020438Y0019442D01*
X0020566Y0019349D01*
X0020692Y0019253D01*
X0020815Y0019153D01*
X0020936Y0019051D01*
X0021054Y0018946D01*
X0021169Y0018837D01*
X0021282Y0018726D01*
X0021392Y0018612D01*
X0021499Y0018495D01*
X0021603Y0018376D01*
X0021704Y0018254D01*
X0021801Y0018129D01*
X0021896Y0018002D01*
X0021987Y0017873D01*
X0022076Y0017742D01*
X0022160Y0017608D01*
X0022242Y0017472D01*
X0022320Y0017335D01*
X0022394Y0017195D01*
X0022465Y0017053D01*
X0022533Y0016910D01*
X0022597Y0016765D01*
X0022657Y0016619D01*
X0022713Y0016471D01*
X0022766Y0016322D01*
X0022815Y0016171D01*
X0022860Y0016019D01*
X0022901Y0015866D01*
X0022939Y0015713D01*
X0022972Y0015558D01*
X0023002Y0015402D01*
X0023028Y0015246D01*
X0023049Y0015089D01*
X0023067Y0014932D01*
X0023081Y0014774D01*
X0023091Y0014616D01*
X0023097Y0014458D01*
X0023099Y0014300D01*
X0023097Y0014142D01*
X0023091Y0013984D01*
X0023081Y0013826D01*
X0023067Y0013668D01*
X0023049Y0013511D01*
X0023028Y0013354D01*
X0023002Y0013198D01*
X0022972Y0013042D01*
X0022939Y0012887D01*
X0022901Y0012734D01*
X0022860Y0012581D01*
X0022815Y0012429D01*
X0022766Y0012278D01*
X0022713Y0012129D01*
X0022657Y0011981D01*
X0022597Y0011835D01*
X0022533Y0011690D01*
X0022465Y0011547D01*
X0022394Y0011405D01*
X0022320Y0011265D01*
X0022242Y0011128D01*
X0022160Y0010992D01*
X0022076Y0010858D01*
X0021987Y0010727D01*
X0021896Y0010598D01*
X0021801Y0010471D01*
X0021704Y0010346D01*
X0021603Y0010224D01*
X0021499Y0010105D01*
X0021392Y0009988D01*
X0021282Y0009874D01*
X0021169Y0009763D01*
X0021054Y0009654D01*
X0020936Y0009549D01*
X0020815Y0009447D01*
X0020692Y0009347D01*
X0020566Y0009251D01*
X0020438Y0009158D01*
X0020308Y0009068D01*
X0020175Y0008982D01*
X0020040Y0008898D01*
X0019904Y0008819D01*
X0019765Y0008742D01*
X0019624Y0008670D01*
X0019482Y0008600D01*
X0019338Y0008535D01*
X0019192Y0008473D01*
X0019045Y0008415D01*
X0018896Y0008360D01*
X0018746Y0008309D01*
X0018595Y0008262D01*
X0018443Y0008219D01*
X0018290Y0008180D01*
X0018135Y0008144D01*
X0017980Y0008113D01*
X0017824Y0008085D01*
X0017668Y0008061D01*
X0017511Y0008041D01*
X0017353Y0008025D01*
X0017196Y0008013D01*
X0017037Y0008005D01*
X0016879Y0008001D01*
X0016721Y0008001D01*
X0016563Y0008005D01*
X0016404Y0008013D01*
X0016247Y0008025D01*
X0016089Y0008041D01*
X0015932Y0008061D01*
X0015776Y0008085D01*
X0015620Y0008113D01*
X0015465Y0008144D01*
X0015310Y0008180D01*
X0015157Y0008219D01*
X0015005Y0008262D01*
X0014854Y0008309D01*
X0014704Y0008360D01*
X0014555Y0008415D01*
X0014408Y0008473D01*
X0014262Y0008535D01*
X0014118Y0008600D01*
X0013976Y0008670D01*
X0013835Y0008742D01*
X0013696Y0008819D01*
X0013560Y0008898D01*
X0013425Y0008982D01*
X0013292Y0009068D01*
X0013162Y0009158D01*
X0013034Y0009251D01*
X0012908Y0009347D01*
X0012785Y0009447D01*
X0012664Y0009549D01*
X0012546Y0009654D01*
X0012431Y0009763D01*
X0012318Y0009874D01*
X0012208Y0009988D01*
X0012101Y0010105D01*
X0011997Y0010224D01*
X0011896Y0010346D01*
X0011799Y0010471D01*
X0011704Y0010598D01*
X0011613Y0010727D01*
X0011524Y0010858D01*
X0011440Y0010992D01*
X0011358Y0011128D01*
X0011280Y0011265D01*
X0011206Y0011405D01*
X0011135Y0011547D01*
X0011067Y0011690D01*
X0011003Y0011835D01*
X0010943Y0011981D01*
X0010887Y0012129D01*
X0010834Y0012278D01*
X0010785Y0012429D01*
X0010740Y0012581D01*
X0010699Y0012734D01*
X0010661Y0012887D01*
X0010628Y0013042D01*
X0010598Y0013198D01*
X0010572Y0013354D01*
X0010551Y0013511D01*
X0010533Y0013668D01*
X0010519Y0013826D01*
X0010509Y0013984D01*
X0010503Y0014142D01*
X0010501Y0014300D01*
X0083867Y0025550D02*
X0083869Y0025634D01*
X0083875Y0025717D01*
X0083885Y0025800D01*
X0083899Y0025883D01*
X0083916Y0025965D01*
X0083938Y0026046D01*
X0083963Y0026125D01*
X0083992Y0026204D01*
X0084025Y0026281D01*
X0084061Y0026356D01*
X0084101Y0026430D01*
X0084144Y0026502D01*
X0084191Y0026571D01*
X0084241Y0026638D01*
X0084294Y0026703D01*
X0084350Y0026765D01*
X0084408Y0026825D01*
X0084470Y0026882D01*
X0084534Y0026935D01*
X0084601Y0026986D01*
X0084670Y0027033D01*
X0084741Y0027078D01*
X0084814Y0027118D01*
X0084889Y0027155D01*
X0084966Y0027189D01*
X0085044Y0027219D01*
X0085123Y0027245D01*
X0085204Y0027268D01*
X0085286Y0027286D01*
X0085368Y0027301D01*
X0085451Y0027312D01*
X0085534Y0027319D01*
X0085618Y0027322D01*
X0085702Y0027321D01*
X0085785Y0027316D01*
X0085869Y0027307D01*
X0085951Y0027294D01*
X0086033Y0027278D01*
X0086114Y0027257D01*
X0086195Y0027233D01*
X0086273Y0027205D01*
X0086351Y0027173D01*
X0086427Y0027137D01*
X0086501Y0027098D01*
X0086573Y0027056D01*
X0086643Y0027010D01*
X0086711Y0026961D01*
X0086776Y0026909D01*
X0086839Y0026854D01*
X0086899Y0026796D01*
X0086957Y0026735D01*
X0087011Y0026671D01*
X0087063Y0026605D01*
X0087111Y0026537D01*
X0087156Y0026466D01*
X0087197Y0026393D01*
X0087236Y0026319D01*
X0087270Y0026243D01*
X0087301Y0026165D01*
X0087328Y0026086D01*
X0087352Y0026005D01*
X0087371Y0025924D01*
X0087387Y0025842D01*
X0087399Y0025759D01*
X0087407Y0025675D01*
X0087411Y0025592D01*
X0087411Y0025508D01*
X0087407Y0025425D01*
X0087399Y0025341D01*
X0087387Y0025258D01*
X0087371Y0025176D01*
X0087352Y0025095D01*
X0087328Y0025014D01*
X0087301Y0024935D01*
X0087270Y0024857D01*
X0087236Y0024781D01*
X0087197Y0024707D01*
X0087156Y0024634D01*
X0087111Y0024563D01*
X0087063Y0024495D01*
X0087011Y0024429D01*
X0086957Y0024365D01*
X0086899Y0024304D01*
X0086839Y0024246D01*
X0086776Y0024191D01*
X0086711Y0024139D01*
X0086643Y0024090D01*
X0086573Y0024044D01*
X0086501Y0024002D01*
X0086427Y0023963D01*
X0086351Y0023927D01*
X0086273Y0023895D01*
X0086195Y0023867D01*
X0086114Y0023843D01*
X0086033Y0023822D01*
X0085951Y0023806D01*
X0085869Y0023793D01*
X0085785Y0023784D01*
X0085702Y0023779D01*
X0085618Y0023778D01*
X0085534Y0023781D01*
X0085451Y0023788D01*
X0085368Y0023799D01*
X0085286Y0023814D01*
X0085204Y0023832D01*
X0085123Y0023855D01*
X0085044Y0023881D01*
X0084966Y0023911D01*
X0084889Y0023945D01*
X0084814Y0023982D01*
X0084741Y0024022D01*
X0084670Y0024067D01*
X0084601Y0024114D01*
X0084534Y0024165D01*
X0084470Y0024218D01*
X0084408Y0024275D01*
X0084350Y0024335D01*
X0084294Y0024397D01*
X0084241Y0024462D01*
X0084191Y0024529D01*
X0084144Y0024598D01*
X0084101Y0024670D01*
X0084061Y0024744D01*
X0084025Y0024819D01*
X0083992Y0024896D01*
X0083963Y0024975D01*
X0083938Y0025054D01*
X0083916Y0025135D01*
X0083899Y0025217D01*
X0083885Y0025300D01*
X0083875Y0025383D01*
X0083869Y0025466D01*
X0083867Y0025550D01*
X0101189Y0025550D02*
X0101191Y0025634D01*
X0101197Y0025717D01*
X0101207Y0025800D01*
X0101221Y0025883D01*
X0101238Y0025965D01*
X0101260Y0026046D01*
X0101285Y0026125D01*
X0101314Y0026204D01*
X0101347Y0026281D01*
X0101383Y0026356D01*
X0101423Y0026430D01*
X0101466Y0026502D01*
X0101513Y0026571D01*
X0101563Y0026638D01*
X0101616Y0026703D01*
X0101672Y0026765D01*
X0101730Y0026825D01*
X0101792Y0026882D01*
X0101856Y0026935D01*
X0101923Y0026986D01*
X0101992Y0027033D01*
X0102063Y0027078D01*
X0102136Y0027118D01*
X0102211Y0027155D01*
X0102288Y0027189D01*
X0102366Y0027219D01*
X0102445Y0027245D01*
X0102526Y0027268D01*
X0102608Y0027286D01*
X0102690Y0027301D01*
X0102773Y0027312D01*
X0102856Y0027319D01*
X0102940Y0027322D01*
X0103024Y0027321D01*
X0103107Y0027316D01*
X0103191Y0027307D01*
X0103273Y0027294D01*
X0103355Y0027278D01*
X0103436Y0027257D01*
X0103517Y0027233D01*
X0103595Y0027205D01*
X0103673Y0027173D01*
X0103749Y0027137D01*
X0103823Y0027098D01*
X0103895Y0027056D01*
X0103965Y0027010D01*
X0104033Y0026961D01*
X0104098Y0026909D01*
X0104161Y0026854D01*
X0104221Y0026796D01*
X0104279Y0026735D01*
X0104333Y0026671D01*
X0104385Y0026605D01*
X0104433Y0026537D01*
X0104478Y0026466D01*
X0104519Y0026393D01*
X0104558Y0026319D01*
X0104592Y0026243D01*
X0104623Y0026165D01*
X0104650Y0026086D01*
X0104674Y0026005D01*
X0104693Y0025924D01*
X0104709Y0025842D01*
X0104721Y0025759D01*
X0104729Y0025675D01*
X0104733Y0025592D01*
X0104733Y0025508D01*
X0104729Y0025425D01*
X0104721Y0025341D01*
X0104709Y0025258D01*
X0104693Y0025176D01*
X0104674Y0025095D01*
X0104650Y0025014D01*
X0104623Y0024935D01*
X0104592Y0024857D01*
X0104558Y0024781D01*
X0104519Y0024707D01*
X0104478Y0024634D01*
X0104433Y0024563D01*
X0104385Y0024495D01*
X0104333Y0024429D01*
X0104279Y0024365D01*
X0104221Y0024304D01*
X0104161Y0024246D01*
X0104098Y0024191D01*
X0104033Y0024139D01*
X0103965Y0024090D01*
X0103895Y0024044D01*
X0103823Y0024002D01*
X0103749Y0023963D01*
X0103673Y0023927D01*
X0103595Y0023895D01*
X0103517Y0023867D01*
X0103436Y0023843D01*
X0103355Y0023822D01*
X0103273Y0023806D01*
X0103191Y0023793D01*
X0103107Y0023784D01*
X0103024Y0023779D01*
X0102940Y0023778D01*
X0102856Y0023781D01*
X0102773Y0023788D01*
X0102690Y0023799D01*
X0102608Y0023814D01*
X0102526Y0023832D01*
X0102445Y0023855D01*
X0102366Y0023881D01*
X0102288Y0023911D01*
X0102211Y0023945D01*
X0102136Y0023982D01*
X0102063Y0024022D01*
X0101992Y0024067D01*
X0101923Y0024114D01*
X0101856Y0024165D01*
X0101792Y0024218D01*
X0101730Y0024275D01*
X0101672Y0024335D01*
X0101616Y0024397D01*
X0101563Y0024462D01*
X0101513Y0024529D01*
X0101466Y0024598D01*
X0101423Y0024670D01*
X0101383Y0024744D01*
X0101347Y0024819D01*
X0101314Y0024896D01*
X0101285Y0024975D01*
X0101260Y0025054D01*
X0101238Y0025135D01*
X0101221Y0025217D01*
X0101207Y0025300D01*
X0101197Y0025383D01*
X0101191Y0025466D01*
X0101189Y0025550D01*
X0128001Y0014300D02*
X0128003Y0014458D01*
X0128009Y0014616D01*
X0128019Y0014774D01*
X0128033Y0014932D01*
X0128051Y0015089D01*
X0128072Y0015246D01*
X0128098Y0015402D01*
X0128128Y0015558D01*
X0128161Y0015713D01*
X0128199Y0015866D01*
X0128240Y0016019D01*
X0128285Y0016171D01*
X0128334Y0016322D01*
X0128387Y0016471D01*
X0128443Y0016619D01*
X0128503Y0016765D01*
X0128567Y0016910D01*
X0128635Y0017053D01*
X0128706Y0017195D01*
X0128780Y0017335D01*
X0128858Y0017472D01*
X0128940Y0017608D01*
X0129024Y0017742D01*
X0129113Y0017873D01*
X0129204Y0018002D01*
X0129299Y0018129D01*
X0129396Y0018254D01*
X0129497Y0018376D01*
X0129601Y0018495D01*
X0129708Y0018612D01*
X0129818Y0018726D01*
X0129931Y0018837D01*
X0130046Y0018946D01*
X0130164Y0019051D01*
X0130285Y0019153D01*
X0130408Y0019253D01*
X0130534Y0019349D01*
X0130662Y0019442D01*
X0130792Y0019532D01*
X0130925Y0019618D01*
X0131060Y0019702D01*
X0131196Y0019781D01*
X0131335Y0019858D01*
X0131476Y0019930D01*
X0131618Y0020000D01*
X0131762Y0020065D01*
X0131908Y0020127D01*
X0132055Y0020185D01*
X0132204Y0020240D01*
X0132354Y0020291D01*
X0132505Y0020338D01*
X0132657Y0020381D01*
X0132810Y0020420D01*
X0132965Y0020456D01*
X0133120Y0020487D01*
X0133276Y0020515D01*
X0133432Y0020539D01*
X0133589Y0020559D01*
X0133747Y0020575D01*
X0133904Y0020587D01*
X0134063Y0020595D01*
X0134221Y0020599D01*
X0134379Y0020599D01*
X0134537Y0020595D01*
X0134696Y0020587D01*
X0134853Y0020575D01*
X0135011Y0020559D01*
X0135168Y0020539D01*
X0135324Y0020515D01*
X0135480Y0020487D01*
X0135635Y0020456D01*
X0135790Y0020420D01*
X0135943Y0020381D01*
X0136095Y0020338D01*
X0136246Y0020291D01*
X0136396Y0020240D01*
X0136545Y0020185D01*
X0136692Y0020127D01*
X0136838Y0020065D01*
X0136982Y0020000D01*
X0137124Y0019930D01*
X0137265Y0019858D01*
X0137404Y0019781D01*
X0137540Y0019702D01*
X0137675Y0019618D01*
X0137808Y0019532D01*
X0137938Y0019442D01*
X0138066Y0019349D01*
X0138192Y0019253D01*
X0138315Y0019153D01*
X0138436Y0019051D01*
X0138554Y0018946D01*
X0138669Y0018837D01*
X0138782Y0018726D01*
X0138892Y0018612D01*
X0138999Y0018495D01*
X0139103Y0018376D01*
X0139204Y0018254D01*
X0139301Y0018129D01*
X0139396Y0018002D01*
X0139487Y0017873D01*
X0139576Y0017742D01*
X0139660Y0017608D01*
X0139742Y0017472D01*
X0139820Y0017335D01*
X0139894Y0017195D01*
X0139965Y0017053D01*
X0140033Y0016910D01*
X0140097Y0016765D01*
X0140157Y0016619D01*
X0140213Y0016471D01*
X0140266Y0016322D01*
X0140315Y0016171D01*
X0140360Y0016019D01*
X0140401Y0015866D01*
X0140439Y0015713D01*
X0140472Y0015558D01*
X0140502Y0015402D01*
X0140528Y0015246D01*
X0140549Y0015089D01*
X0140567Y0014932D01*
X0140581Y0014774D01*
X0140591Y0014616D01*
X0140597Y0014458D01*
X0140599Y0014300D01*
X0140597Y0014142D01*
X0140591Y0013984D01*
X0140581Y0013826D01*
X0140567Y0013668D01*
X0140549Y0013511D01*
X0140528Y0013354D01*
X0140502Y0013198D01*
X0140472Y0013042D01*
X0140439Y0012887D01*
X0140401Y0012734D01*
X0140360Y0012581D01*
X0140315Y0012429D01*
X0140266Y0012278D01*
X0140213Y0012129D01*
X0140157Y0011981D01*
X0140097Y0011835D01*
X0140033Y0011690D01*
X0139965Y0011547D01*
X0139894Y0011405D01*
X0139820Y0011265D01*
X0139742Y0011128D01*
X0139660Y0010992D01*
X0139576Y0010858D01*
X0139487Y0010727D01*
X0139396Y0010598D01*
X0139301Y0010471D01*
X0139204Y0010346D01*
X0139103Y0010224D01*
X0138999Y0010105D01*
X0138892Y0009988D01*
X0138782Y0009874D01*
X0138669Y0009763D01*
X0138554Y0009654D01*
X0138436Y0009549D01*
X0138315Y0009447D01*
X0138192Y0009347D01*
X0138066Y0009251D01*
X0137938Y0009158D01*
X0137808Y0009068D01*
X0137675Y0008982D01*
X0137540Y0008898D01*
X0137404Y0008819D01*
X0137265Y0008742D01*
X0137124Y0008670D01*
X0136982Y0008600D01*
X0136838Y0008535D01*
X0136692Y0008473D01*
X0136545Y0008415D01*
X0136396Y0008360D01*
X0136246Y0008309D01*
X0136095Y0008262D01*
X0135943Y0008219D01*
X0135790Y0008180D01*
X0135635Y0008144D01*
X0135480Y0008113D01*
X0135324Y0008085D01*
X0135168Y0008061D01*
X0135011Y0008041D01*
X0134853Y0008025D01*
X0134696Y0008013D01*
X0134537Y0008005D01*
X0134379Y0008001D01*
X0134221Y0008001D01*
X0134063Y0008005D01*
X0133904Y0008013D01*
X0133747Y0008025D01*
X0133589Y0008041D01*
X0133432Y0008061D01*
X0133276Y0008085D01*
X0133120Y0008113D01*
X0132965Y0008144D01*
X0132810Y0008180D01*
X0132657Y0008219D01*
X0132505Y0008262D01*
X0132354Y0008309D01*
X0132204Y0008360D01*
X0132055Y0008415D01*
X0131908Y0008473D01*
X0131762Y0008535D01*
X0131618Y0008600D01*
X0131476Y0008670D01*
X0131335Y0008742D01*
X0131196Y0008819D01*
X0131060Y0008898D01*
X0130925Y0008982D01*
X0130792Y0009068D01*
X0130662Y0009158D01*
X0130534Y0009251D01*
X0130408Y0009347D01*
X0130285Y0009447D01*
X0130164Y0009549D01*
X0130046Y0009654D01*
X0129931Y0009763D01*
X0129818Y0009874D01*
X0129708Y0009988D01*
X0129601Y0010105D01*
X0129497Y0010224D01*
X0129396Y0010346D01*
X0129299Y0010471D01*
X0129204Y0010598D01*
X0129113Y0010727D01*
X0129024Y0010858D01*
X0128940Y0010992D01*
X0128858Y0011128D01*
X0128780Y0011265D01*
X0128706Y0011405D01*
X0128635Y0011547D01*
X0128567Y0011690D01*
X0128503Y0011835D01*
X0128443Y0011981D01*
X0128387Y0012129D01*
X0128334Y0012278D01*
X0128285Y0012429D01*
X0128240Y0012581D01*
X0128199Y0012734D01*
X0128161Y0012887D01*
X0128128Y0013042D01*
X0128098Y0013198D01*
X0128072Y0013354D01*
X0128051Y0013511D01*
X0128033Y0013668D01*
X0128019Y0013826D01*
X0128009Y0013984D01*
X0128003Y0014142D01*
X0128001Y0014300D01*
X0108001Y0194300D02*
X0108003Y0194458D01*
X0108009Y0194616D01*
X0108019Y0194774D01*
X0108033Y0194932D01*
X0108051Y0195089D01*
X0108072Y0195246D01*
X0108098Y0195402D01*
X0108128Y0195558D01*
X0108161Y0195713D01*
X0108199Y0195866D01*
X0108240Y0196019D01*
X0108285Y0196171D01*
X0108334Y0196322D01*
X0108387Y0196471D01*
X0108443Y0196619D01*
X0108503Y0196765D01*
X0108567Y0196910D01*
X0108635Y0197053D01*
X0108706Y0197195D01*
X0108780Y0197335D01*
X0108858Y0197472D01*
X0108940Y0197608D01*
X0109024Y0197742D01*
X0109113Y0197873D01*
X0109204Y0198002D01*
X0109299Y0198129D01*
X0109396Y0198254D01*
X0109497Y0198376D01*
X0109601Y0198495D01*
X0109708Y0198612D01*
X0109818Y0198726D01*
X0109931Y0198837D01*
X0110046Y0198946D01*
X0110164Y0199051D01*
X0110285Y0199153D01*
X0110408Y0199253D01*
X0110534Y0199349D01*
X0110662Y0199442D01*
X0110792Y0199532D01*
X0110925Y0199618D01*
X0111060Y0199702D01*
X0111196Y0199781D01*
X0111335Y0199858D01*
X0111476Y0199930D01*
X0111618Y0200000D01*
X0111762Y0200065D01*
X0111908Y0200127D01*
X0112055Y0200185D01*
X0112204Y0200240D01*
X0112354Y0200291D01*
X0112505Y0200338D01*
X0112657Y0200381D01*
X0112810Y0200420D01*
X0112965Y0200456D01*
X0113120Y0200487D01*
X0113276Y0200515D01*
X0113432Y0200539D01*
X0113589Y0200559D01*
X0113747Y0200575D01*
X0113904Y0200587D01*
X0114063Y0200595D01*
X0114221Y0200599D01*
X0114379Y0200599D01*
X0114537Y0200595D01*
X0114696Y0200587D01*
X0114853Y0200575D01*
X0115011Y0200559D01*
X0115168Y0200539D01*
X0115324Y0200515D01*
X0115480Y0200487D01*
X0115635Y0200456D01*
X0115790Y0200420D01*
X0115943Y0200381D01*
X0116095Y0200338D01*
X0116246Y0200291D01*
X0116396Y0200240D01*
X0116545Y0200185D01*
X0116692Y0200127D01*
X0116838Y0200065D01*
X0116982Y0200000D01*
X0117124Y0199930D01*
X0117265Y0199858D01*
X0117404Y0199781D01*
X0117540Y0199702D01*
X0117675Y0199618D01*
X0117808Y0199532D01*
X0117938Y0199442D01*
X0118066Y0199349D01*
X0118192Y0199253D01*
X0118315Y0199153D01*
X0118436Y0199051D01*
X0118554Y0198946D01*
X0118669Y0198837D01*
X0118782Y0198726D01*
X0118892Y0198612D01*
X0118999Y0198495D01*
X0119103Y0198376D01*
X0119204Y0198254D01*
X0119301Y0198129D01*
X0119396Y0198002D01*
X0119487Y0197873D01*
X0119576Y0197742D01*
X0119660Y0197608D01*
X0119742Y0197472D01*
X0119820Y0197335D01*
X0119894Y0197195D01*
X0119965Y0197053D01*
X0120033Y0196910D01*
X0120097Y0196765D01*
X0120157Y0196619D01*
X0120213Y0196471D01*
X0120266Y0196322D01*
X0120315Y0196171D01*
X0120360Y0196019D01*
X0120401Y0195866D01*
X0120439Y0195713D01*
X0120472Y0195558D01*
X0120502Y0195402D01*
X0120528Y0195246D01*
X0120549Y0195089D01*
X0120567Y0194932D01*
X0120581Y0194774D01*
X0120591Y0194616D01*
X0120597Y0194458D01*
X0120599Y0194300D01*
X0120597Y0194142D01*
X0120591Y0193984D01*
X0120581Y0193826D01*
X0120567Y0193668D01*
X0120549Y0193511D01*
X0120528Y0193354D01*
X0120502Y0193198D01*
X0120472Y0193042D01*
X0120439Y0192887D01*
X0120401Y0192734D01*
X0120360Y0192581D01*
X0120315Y0192429D01*
X0120266Y0192278D01*
X0120213Y0192129D01*
X0120157Y0191981D01*
X0120097Y0191835D01*
X0120033Y0191690D01*
X0119965Y0191547D01*
X0119894Y0191405D01*
X0119820Y0191265D01*
X0119742Y0191128D01*
X0119660Y0190992D01*
X0119576Y0190858D01*
X0119487Y0190727D01*
X0119396Y0190598D01*
X0119301Y0190471D01*
X0119204Y0190346D01*
X0119103Y0190224D01*
X0118999Y0190105D01*
X0118892Y0189988D01*
X0118782Y0189874D01*
X0118669Y0189763D01*
X0118554Y0189654D01*
X0118436Y0189549D01*
X0118315Y0189447D01*
X0118192Y0189347D01*
X0118066Y0189251D01*
X0117938Y0189158D01*
X0117808Y0189068D01*
X0117675Y0188982D01*
X0117540Y0188898D01*
X0117404Y0188819D01*
X0117265Y0188742D01*
X0117124Y0188670D01*
X0116982Y0188600D01*
X0116838Y0188535D01*
X0116692Y0188473D01*
X0116545Y0188415D01*
X0116396Y0188360D01*
X0116246Y0188309D01*
X0116095Y0188262D01*
X0115943Y0188219D01*
X0115790Y0188180D01*
X0115635Y0188144D01*
X0115480Y0188113D01*
X0115324Y0188085D01*
X0115168Y0188061D01*
X0115011Y0188041D01*
X0114853Y0188025D01*
X0114696Y0188013D01*
X0114537Y0188005D01*
X0114379Y0188001D01*
X0114221Y0188001D01*
X0114063Y0188005D01*
X0113904Y0188013D01*
X0113747Y0188025D01*
X0113589Y0188041D01*
X0113432Y0188061D01*
X0113276Y0188085D01*
X0113120Y0188113D01*
X0112965Y0188144D01*
X0112810Y0188180D01*
X0112657Y0188219D01*
X0112505Y0188262D01*
X0112354Y0188309D01*
X0112204Y0188360D01*
X0112055Y0188415D01*
X0111908Y0188473D01*
X0111762Y0188535D01*
X0111618Y0188600D01*
X0111476Y0188670D01*
X0111335Y0188742D01*
X0111196Y0188819D01*
X0111060Y0188898D01*
X0110925Y0188982D01*
X0110792Y0189068D01*
X0110662Y0189158D01*
X0110534Y0189251D01*
X0110408Y0189347D01*
X0110285Y0189447D01*
X0110164Y0189549D01*
X0110046Y0189654D01*
X0109931Y0189763D01*
X0109818Y0189874D01*
X0109708Y0189988D01*
X0109601Y0190105D01*
X0109497Y0190224D01*
X0109396Y0190346D01*
X0109299Y0190471D01*
X0109204Y0190598D01*
X0109113Y0190727D01*
X0109024Y0190858D01*
X0108940Y0190992D01*
X0108858Y0191128D01*
X0108780Y0191265D01*
X0108706Y0191405D01*
X0108635Y0191547D01*
X0108567Y0191690D01*
X0108503Y0191835D01*
X0108443Y0191981D01*
X0108387Y0192129D01*
X0108334Y0192278D01*
X0108285Y0192429D01*
X0108240Y0192581D01*
X0108199Y0192734D01*
X0108161Y0192887D01*
X0108128Y0193042D01*
X0108098Y0193198D01*
X0108072Y0193354D01*
X0108051Y0193511D01*
X0108033Y0193668D01*
X0108019Y0193826D01*
X0108009Y0193984D01*
X0108003Y0194142D01*
X0108001Y0194300D01*
X0053001Y0194300D02*
X0053003Y0194458D01*
X0053009Y0194616D01*
X0053019Y0194774D01*
X0053033Y0194932D01*
X0053051Y0195089D01*
X0053072Y0195246D01*
X0053098Y0195402D01*
X0053128Y0195558D01*
X0053161Y0195713D01*
X0053199Y0195866D01*
X0053240Y0196019D01*
X0053285Y0196171D01*
X0053334Y0196322D01*
X0053387Y0196471D01*
X0053443Y0196619D01*
X0053503Y0196765D01*
X0053567Y0196910D01*
X0053635Y0197053D01*
X0053706Y0197195D01*
X0053780Y0197335D01*
X0053858Y0197472D01*
X0053940Y0197608D01*
X0054024Y0197742D01*
X0054113Y0197873D01*
X0054204Y0198002D01*
X0054299Y0198129D01*
X0054396Y0198254D01*
X0054497Y0198376D01*
X0054601Y0198495D01*
X0054708Y0198612D01*
X0054818Y0198726D01*
X0054931Y0198837D01*
X0055046Y0198946D01*
X0055164Y0199051D01*
X0055285Y0199153D01*
X0055408Y0199253D01*
X0055534Y0199349D01*
X0055662Y0199442D01*
X0055792Y0199532D01*
X0055925Y0199618D01*
X0056060Y0199702D01*
X0056196Y0199781D01*
X0056335Y0199858D01*
X0056476Y0199930D01*
X0056618Y0200000D01*
X0056762Y0200065D01*
X0056908Y0200127D01*
X0057055Y0200185D01*
X0057204Y0200240D01*
X0057354Y0200291D01*
X0057505Y0200338D01*
X0057657Y0200381D01*
X0057810Y0200420D01*
X0057965Y0200456D01*
X0058120Y0200487D01*
X0058276Y0200515D01*
X0058432Y0200539D01*
X0058589Y0200559D01*
X0058747Y0200575D01*
X0058904Y0200587D01*
X0059063Y0200595D01*
X0059221Y0200599D01*
X0059379Y0200599D01*
X0059537Y0200595D01*
X0059696Y0200587D01*
X0059853Y0200575D01*
X0060011Y0200559D01*
X0060168Y0200539D01*
X0060324Y0200515D01*
X0060480Y0200487D01*
X0060635Y0200456D01*
X0060790Y0200420D01*
X0060943Y0200381D01*
X0061095Y0200338D01*
X0061246Y0200291D01*
X0061396Y0200240D01*
X0061545Y0200185D01*
X0061692Y0200127D01*
X0061838Y0200065D01*
X0061982Y0200000D01*
X0062124Y0199930D01*
X0062265Y0199858D01*
X0062404Y0199781D01*
X0062540Y0199702D01*
X0062675Y0199618D01*
X0062808Y0199532D01*
X0062938Y0199442D01*
X0063066Y0199349D01*
X0063192Y0199253D01*
X0063315Y0199153D01*
X0063436Y0199051D01*
X0063554Y0198946D01*
X0063669Y0198837D01*
X0063782Y0198726D01*
X0063892Y0198612D01*
X0063999Y0198495D01*
X0064103Y0198376D01*
X0064204Y0198254D01*
X0064301Y0198129D01*
X0064396Y0198002D01*
X0064487Y0197873D01*
X0064576Y0197742D01*
X0064660Y0197608D01*
X0064742Y0197472D01*
X0064820Y0197335D01*
X0064894Y0197195D01*
X0064965Y0197053D01*
X0065033Y0196910D01*
X0065097Y0196765D01*
X0065157Y0196619D01*
X0065213Y0196471D01*
X0065266Y0196322D01*
X0065315Y0196171D01*
X0065360Y0196019D01*
X0065401Y0195866D01*
X0065439Y0195713D01*
X0065472Y0195558D01*
X0065502Y0195402D01*
X0065528Y0195246D01*
X0065549Y0195089D01*
X0065567Y0194932D01*
X0065581Y0194774D01*
X0065591Y0194616D01*
X0065597Y0194458D01*
X0065599Y0194300D01*
X0065597Y0194142D01*
X0065591Y0193984D01*
X0065581Y0193826D01*
X0065567Y0193668D01*
X0065549Y0193511D01*
X0065528Y0193354D01*
X0065502Y0193198D01*
X0065472Y0193042D01*
X0065439Y0192887D01*
X0065401Y0192734D01*
X0065360Y0192581D01*
X0065315Y0192429D01*
X0065266Y0192278D01*
X0065213Y0192129D01*
X0065157Y0191981D01*
X0065097Y0191835D01*
X0065033Y0191690D01*
X0064965Y0191547D01*
X0064894Y0191405D01*
X0064820Y0191265D01*
X0064742Y0191128D01*
X0064660Y0190992D01*
X0064576Y0190858D01*
X0064487Y0190727D01*
X0064396Y0190598D01*
X0064301Y0190471D01*
X0064204Y0190346D01*
X0064103Y0190224D01*
X0063999Y0190105D01*
X0063892Y0189988D01*
X0063782Y0189874D01*
X0063669Y0189763D01*
X0063554Y0189654D01*
X0063436Y0189549D01*
X0063315Y0189447D01*
X0063192Y0189347D01*
X0063066Y0189251D01*
X0062938Y0189158D01*
X0062808Y0189068D01*
X0062675Y0188982D01*
X0062540Y0188898D01*
X0062404Y0188819D01*
X0062265Y0188742D01*
X0062124Y0188670D01*
X0061982Y0188600D01*
X0061838Y0188535D01*
X0061692Y0188473D01*
X0061545Y0188415D01*
X0061396Y0188360D01*
X0061246Y0188309D01*
X0061095Y0188262D01*
X0060943Y0188219D01*
X0060790Y0188180D01*
X0060635Y0188144D01*
X0060480Y0188113D01*
X0060324Y0188085D01*
X0060168Y0188061D01*
X0060011Y0188041D01*
X0059853Y0188025D01*
X0059696Y0188013D01*
X0059537Y0188005D01*
X0059379Y0188001D01*
X0059221Y0188001D01*
X0059063Y0188005D01*
X0058904Y0188013D01*
X0058747Y0188025D01*
X0058589Y0188041D01*
X0058432Y0188061D01*
X0058276Y0188085D01*
X0058120Y0188113D01*
X0057965Y0188144D01*
X0057810Y0188180D01*
X0057657Y0188219D01*
X0057505Y0188262D01*
X0057354Y0188309D01*
X0057204Y0188360D01*
X0057055Y0188415D01*
X0056908Y0188473D01*
X0056762Y0188535D01*
X0056618Y0188600D01*
X0056476Y0188670D01*
X0056335Y0188742D01*
X0056196Y0188819D01*
X0056060Y0188898D01*
X0055925Y0188982D01*
X0055792Y0189068D01*
X0055662Y0189158D01*
X0055534Y0189251D01*
X0055408Y0189347D01*
X0055285Y0189447D01*
X0055164Y0189549D01*
X0055046Y0189654D01*
X0054931Y0189763D01*
X0054818Y0189874D01*
X0054708Y0189988D01*
X0054601Y0190105D01*
X0054497Y0190224D01*
X0054396Y0190346D01*
X0054299Y0190471D01*
X0054204Y0190598D01*
X0054113Y0190727D01*
X0054024Y0190858D01*
X0053940Y0190992D01*
X0053858Y0191128D01*
X0053780Y0191265D01*
X0053706Y0191405D01*
X0053635Y0191547D01*
X0053567Y0191690D01*
X0053503Y0191835D01*
X0053443Y0191981D01*
X0053387Y0192129D01*
X0053334Y0192278D01*
X0053285Y0192429D01*
X0053240Y0192581D01*
X0053199Y0192734D01*
X0053161Y0192887D01*
X0053128Y0193042D01*
X0053098Y0193198D01*
X0053072Y0193354D01*
X0053051Y0193511D01*
X0053033Y0193668D01*
X0053019Y0193826D01*
X0053009Y0193984D01*
X0053003Y0194142D01*
X0053001Y0194300D01*
D11*
X0074300Y0189300D02*
X0074300Y0069300D01*
X0144300Y0069300D01*
X0144300Y0189300D01*
X0074300Y0189300D01*
D12*
X0079300Y0184300D03*
X0139300Y0184300D03*
D13*
X0139300Y0174300D03*
X0139300Y0164300D03*
X0139300Y0154300D03*
X0139300Y0144300D03*
X0139300Y0134300D03*
X0139300Y0124300D03*
X0139300Y0114300D03*
X0139300Y0104300D03*
X0139300Y0094300D03*
X0139300Y0084300D03*
X0139300Y0074300D03*
X0079300Y0074300D03*
X0079300Y0084300D03*
X0079300Y0094300D03*
X0079300Y0104300D03*
X0079300Y0114300D03*
X0079300Y0124300D03*
X0079300Y0134300D03*
X0079300Y0144300D03*
X0079300Y0154300D03*
X0079300Y0164300D03*
X0079300Y0174300D03*
D14*
X0139300Y0059300D03*
D15*
X0139300Y0049300D03*
X0129300Y0049300D03*
X0129300Y0059300D03*
X0119300Y0059300D03*
X0119300Y0049300D03*
D16*
X0031800Y0029300D03*
X0024300Y0029300D03*
X0016800Y0029300D03*
D17*
X0033050Y0056800D03*
X0034300Y0094300D03*
X0050550Y0110550D03*
X0034300Y0134300D03*
X0048050Y0150550D03*
X0034300Y0174300D03*
X0014300Y0193050D03*
X0124300Y0029300D03*
X0053050Y0019300D03*
D18*
X0036007Y0026489D02*
X0036762Y0028313D01*
X0036762Y0030287D01*
X0036007Y0032111D01*
X0034611Y0033507D01*
X0032787Y0034262D01*
X0030813Y0034262D01*
X0028989Y0033507D01*
X0028050Y0032568D01*
X0027111Y0033507D01*
X0025287Y0034262D01*
X0023313Y0034262D01*
X0021489Y0033507D01*
X0020550Y0032568D01*
X0020033Y0033085D01*
X0019401Y0033544D01*
X0018705Y0033899D01*
X0017962Y0034140D01*
X0017191Y0034262D01*
X0016800Y0034262D01*
X0016800Y0029300D01*
X0016800Y0029300D01*
X0016800Y0034262D01*
X0016409Y0034262D01*
X0015638Y0034140D01*
X0014895Y0033899D01*
X0014199Y0033544D01*
X0013567Y0033085D01*
X0013015Y0032533D01*
X0012556Y0031901D01*
X0012201Y0031205D01*
X0011960Y0030462D01*
X0011838Y0029691D01*
X0011838Y0029300D01*
X0011838Y0028909D01*
X0011960Y0028138D01*
X0012201Y0027395D01*
X0012556Y0026699D01*
X0013015Y0026067D01*
X0013567Y0025515D01*
X0014199Y0025056D01*
X0014895Y0024701D01*
X0015638Y0024460D01*
X0016409Y0024338D01*
X0016800Y0024338D01*
X0017191Y0024338D01*
X0017962Y0024460D01*
X0018705Y0024701D01*
X0019401Y0025056D01*
X0020033Y0025515D01*
X0020550Y0026032D01*
X0021489Y0025093D01*
X0023313Y0024338D01*
X0025287Y0024338D01*
X0027111Y0025093D01*
X0028050Y0026032D01*
X0028989Y0025093D01*
X0030813Y0024338D01*
X0032787Y0024338D01*
X0034611Y0025093D01*
X0036007Y0026489D01*
X0035949Y0026432D02*
X0080767Y0026432D01*
X0080767Y0026519D02*
X0080767Y0024581D01*
X0081509Y0022790D01*
X0082879Y0021420D01*
X0084670Y0020678D01*
X0086608Y0020678D01*
X0088398Y0021420D01*
X0089769Y0022790D01*
X0090510Y0024581D01*
X0090510Y0026519D01*
X0089769Y0028310D01*
X0088398Y0029680D01*
X0086608Y0030422D01*
X0084670Y0030422D01*
X0082879Y0029680D01*
X0081509Y0028310D01*
X0080767Y0026519D01*
X0081325Y0023233D02*
X0019795Y0023233D01*
X0018670Y0023699D02*
X0022124Y0022268D01*
X0024768Y0019624D01*
X0026199Y0016170D01*
X0026199Y0012430D01*
X0024768Y0008976D01*
X0024442Y0008650D01*
X0126658Y0008650D01*
X0126332Y0008976D01*
X0124901Y0012430D01*
X0124901Y0016170D01*
X0126332Y0019624D01*
X0128976Y0022268D01*
X0132430Y0023699D01*
X0136170Y0023699D01*
X0139624Y0022268D01*
X0142268Y0019624D01*
X0143699Y0016170D01*
X0143699Y0012430D01*
X0142268Y0008976D01*
X0141942Y0008650D01*
X0145516Y0008650D01*
X0145333Y0066102D01*
X0144966Y0065950D01*
X0104840Y0065950D01*
X0113700Y0057090D01*
X0113700Y0061620D01*
X0116980Y0064900D01*
X0121620Y0064900D01*
X0124300Y0062220D01*
X0126980Y0064900D01*
X0131620Y0064900D01*
X0134405Y0062115D01*
X0134553Y0062472D01*
X0136128Y0064047D01*
X0138186Y0064900D01*
X0140414Y0064900D01*
X0142472Y0064047D01*
X0144047Y0062472D01*
X0144900Y0060414D01*
X0144900Y0058186D01*
X0144047Y0056128D01*
X0142472Y0054553D01*
X0142115Y0054405D01*
X0144900Y0051620D01*
X0144900Y0046980D01*
X0141620Y0043700D01*
X0139640Y0043700D01*
X0131611Y0035671D01*
X0130429Y0034489D01*
X0128885Y0033850D01*
X0113465Y0033850D01*
X0111921Y0034489D01*
X0092560Y0053850D01*
X0068465Y0053850D01*
X0066921Y0054489D01*
X0065739Y0055671D01*
X0065739Y0055671D01*
X0060671Y0060739D01*
X0060671Y0060739D01*
X0059489Y0061921D01*
X0058850Y0063465D01*
X0058850Y0082560D01*
X0052560Y0088850D01*
X0033465Y0088850D01*
X0031921Y0089489D01*
X0030739Y0090671D01*
X0030100Y0092215D01*
X0030100Y0092730D01*
X0029819Y0093409D01*
X0029819Y0095191D01*
X0030501Y0096838D01*
X0031762Y0098099D01*
X0033409Y0098781D01*
X0035191Y0098781D01*
X0036838Y0098099D01*
X0037687Y0097250D01*
X0055135Y0097250D01*
X0056679Y0096611D01*
X0057861Y0095429D01*
X0057861Y0095429D01*
X0063225Y0090065D01*
X0063225Y0117510D01*
X0050110Y0130100D01*
X0035870Y0130100D01*
X0035191Y0129819D01*
X0033409Y0129819D01*
X0031762Y0130501D01*
X0030501Y0131762D01*
X0029819Y0133409D01*
X0029819Y0135191D01*
X0030501Y0136838D01*
X0031762Y0138099D01*
X0033409Y0138781D01*
X0035191Y0138781D01*
X0035870Y0138500D01*
X0051757Y0138500D01*
X0052550Y0138516D01*
X0052591Y0138500D01*
X0052635Y0138500D01*
X0053368Y0138197D01*
X0054106Y0137908D01*
X0054138Y0137878D01*
X0054179Y0137861D01*
X0054740Y0137300D01*
X0067600Y0124954D01*
X0067600Y0141310D01*
X0057332Y0151579D01*
X0056340Y0151989D01*
X0037560Y0170769D01*
X0037107Y0170769D01*
X0036838Y0170501D01*
X0035191Y0169819D01*
X0033409Y0169819D01*
X0031762Y0170501D01*
X0030501Y0171762D01*
X0030098Y0172734D01*
X0029999Y0172848D01*
X0029782Y0173499D01*
X0029519Y0174134D01*
X0029519Y0174287D01*
X0029471Y0174433D01*
X0029519Y0175118D01*
X0029519Y0175805D01*
X0029578Y0175946D01*
X0029589Y0176100D01*
X0029896Y0176714D01*
X0030159Y0177348D01*
X0030267Y0177457D01*
X0030336Y0177594D01*
X0030855Y0178044D01*
X0031340Y0178530D01*
X0031482Y0178589D01*
X0031598Y0178689D01*
X0032249Y0178906D01*
X0032884Y0179169D01*
X0033037Y0179169D01*
X0033183Y0179218D01*
X0033868Y0179169D01*
X0040135Y0179169D01*
X0041679Y0178530D01*
X0042861Y0177348D01*
X0060688Y0159521D01*
X0061679Y0159111D01*
X0062861Y0157929D01*
X0070950Y0149840D01*
X0070950Y0189966D01*
X0071460Y0191198D01*
X0072402Y0192140D01*
X0073634Y0192650D01*
X0104901Y0192650D01*
X0104901Y0196170D01*
X0105933Y0198661D01*
X0067667Y0198661D01*
X0068699Y0196170D01*
X0068699Y0192430D01*
X0067268Y0188976D01*
X0064624Y0186332D01*
X0061170Y0184901D01*
X0057430Y0184901D01*
X0053976Y0186332D01*
X0051332Y0188976D01*
X0049901Y0192430D01*
X0049901Y0196170D01*
X0050933Y0198661D01*
X0007410Y0198661D01*
X0007987Y0017584D01*
X0008832Y0019624D01*
X0011476Y0022268D01*
X0014930Y0023699D01*
X0018670Y0023699D01*
X0016800Y0024338D02*
X0016800Y0029300D01*
X0016800Y0029300D01*
X0016800Y0029300D01*
X0011838Y0029300D01*
X0016800Y0029300D01*
X0016800Y0024338D01*
X0016800Y0026432D02*
X0016800Y0026432D01*
X0016800Y0029630D02*
X0016800Y0029630D01*
X0016800Y0032829D02*
X0016800Y0032829D01*
X0020289Y0032829D02*
X0020811Y0032829D01*
X0013805Y0023233D02*
X0007969Y0023233D01*
X0007958Y0026432D02*
X0012750Y0026432D01*
X0011838Y0029630D02*
X0007948Y0029630D01*
X0007938Y0032829D02*
X0013311Y0032829D01*
X0007928Y0036027D02*
X0110383Y0036027D01*
X0107185Y0039226D02*
X0007918Y0039226D01*
X0007908Y0042424D02*
X0103986Y0042424D01*
X0100788Y0045623D02*
X0007897Y0045623D01*
X0007887Y0048821D02*
X0097589Y0048821D01*
X0094391Y0052020D02*
X0007877Y0052020D01*
X0007867Y0055218D02*
X0066192Y0055218D01*
X0069300Y0058050D02*
X0063050Y0064300D01*
X0063050Y0084300D01*
X0054300Y0093050D01*
X0034300Y0093050D01*
X0034300Y0094300D01*
X0030485Y0096799D02*
X0007734Y0096799D01*
X0007724Y0099997D02*
X0063225Y0099997D01*
X0063225Y0096799D02*
X0056225Y0096799D01*
X0059689Y0093600D02*
X0063225Y0093600D01*
X0063225Y0090402D02*
X0062888Y0090402D01*
X0057406Y0084005D02*
X0007775Y0084005D01*
X0007765Y0087203D02*
X0054207Y0087203D01*
X0058850Y0080806D02*
X0007785Y0080806D01*
X0007795Y0077608D02*
X0058850Y0077608D01*
X0058850Y0074409D02*
X0007806Y0074409D01*
X0007816Y0071211D02*
X0058850Y0071211D01*
X0058850Y0068012D02*
X0007826Y0068012D01*
X0007836Y0064814D02*
X0058850Y0064814D01*
X0059795Y0061615D02*
X0007846Y0061615D01*
X0007857Y0058417D02*
X0062994Y0058417D01*
X0069300Y0058050D02*
X0094300Y0058050D01*
X0114300Y0038050D01*
X0128050Y0038050D01*
X0139300Y0049300D01*
X0143542Y0045623D02*
X0145398Y0045623D01*
X0145408Y0042424D02*
X0138364Y0042424D01*
X0135165Y0039226D02*
X0145419Y0039226D01*
X0145429Y0036027D02*
X0131967Y0036027D01*
X0124300Y0043050D02*
X0115550Y0043050D01*
X0096175Y0062425D01*
X0071800Y0062425D01*
X0067425Y0066800D01*
X0067425Y0119300D01*
X0051800Y0134300D01*
X0034300Y0134300D01*
X0032439Y0138379D02*
X0007602Y0138379D01*
X0007592Y0141578D02*
X0067332Y0141578D01*
X0067600Y0138379D02*
X0052927Y0138379D01*
X0056947Y0135181D02*
X0067600Y0135181D01*
X0067600Y0131982D02*
X0060279Y0131982D01*
X0063611Y0128784D02*
X0067600Y0128784D01*
X0067600Y0125585D02*
X0066942Y0125585D01*
X0061477Y0119188D02*
X0007663Y0119188D01*
X0007653Y0122387D02*
X0058145Y0122387D01*
X0054813Y0125585D02*
X0007643Y0125585D01*
X0007632Y0128784D02*
X0051481Y0128784D01*
X0063225Y0115990D02*
X0007673Y0115990D01*
X0007683Y0112791D02*
X0063225Y0112791D01*
X0063225Y0109593D02*
X0007694Y0109593D01*
X0007704Y0106394D02*
X0063225Y0106394D01*
X0063225Y0103196D02*
X0007714Y0103196D01*
X0007745Y0093600D02*
X0029819Y0093600D01*
X0031009Y0090402D02*
X0007755Y0090402D01*
X0007622Y0131982D02*
X0030410Y0131982D01*
X0029819Y0135181D02*
X0007612Y0135181D01*
X0007582Y0144776D02*
X0064134Y0144776D01*
X0060935Y0147975D02*
X0007571Y0147975D01*
X0007561Y0151173D02*
X0057737Y0151173D01*
X0058719Y0155550D02*
X0039300Y0174969D01*
X0033719Y0174969D01*
X0034300Y0174300D01*
X0036509Y0170365D02*
X0037965Y0170365D01*
X0041164Y0167166D02*
X0007510Y0167166D01*
X0007500Y0170365D02*
X0032091Y0170365D01*
X0029756Y0173563D02*
X0007490Y0173563D01*
X0007480Y0176762D02*
X0029916Y0176762D01*
X0043447Y0176762D02*
X0070950Y0176762D01*
X0070950Y0173563D02*
X0046646Y0173563D01*
X0049844Y0170365D02*
X0070950Y0170365D01*
X0070950Y0167166D02*
X0053043Y0167166D01*
X0056241Y0163968D02*
X0070950Y0163968D01*
X0070950Y0160769D02*
X0059440Y0160769D01*
X0063219Y0157570D02*
X0070950Y0157570D01*
X0070950Y0154372D02*
X0066418Y0154372D01*
X0068050Y0154300D02*
X0079300Y0154300D01*
X0084853Y0154300D01*
X0084853Y0156600D01*
X0082153Y0159300D01*
X0084853Y0162000D01*
X0084853Y0166600D01*
X0082153Y0169300D01*
X0084853Y0172000D01*
X0084853Y0176600D01*
X0082705Y0178747D01*
X0082770Y0178747D01*
X0083726Y0179143D01*
X0084457Y0179874D01*
X0084853Y0180830D01*
X0084853Y0185950D01*
X0109897Y0185950D01*
X0112430Y0184901D01*
X0116170Y0184901D01*
X0118703Y0185950D01*
X0133747Y0185950D01*
X0133747Y0180830D01*
X0134143Y0179874D01*
X0134874Y0179143D01*
X0135830Y0178747D01*
X0135894Y0178747D01*
X0133747Y0176600D01*
X0133747Y0174300D01*
X0133747Y0172000D01*
X0136447Y0169300D01*
X0133747Y0166600D01*
X0133747Y0162000D01*
X0136447Y0159300D01*
X0133747Y0156600D01*
X0133747Y0152000D01*
X0136447Y0149300D01*
X0133747Y0146600D01*
X0133747Y0142000D01*
X0136447Y0139300D01*
X0133747Y0136600D01*
X0133747Y0132000D01*
X0136447Y0129300D01*
X0133747Y0126600D01*
X0133747Y0122000D01*
X0136447Y0119300D01*
X0133747Y0116600D01*
X0133747Y0112000D01*
X0136447Y0109300D01*
X0133747Y0106600D01*
X0133747Y0102000D01*
X0136447Y0099300D01*
X0133747Y0096600D01*
X0133747Y0092000D01*
X0136447Y0089300D01*
X0133747Y0086600D01*
X0133747Y0082000D01*
X0136447Y0079300D01*
X0133747Y0076600D01*
X0133747Y0072650D01*
X0084853Y0072650D01*
X0084853Y0076600D01*
X0082153Y0079300D01*
X0084853Y0082000D01*
X0084853Y0086600D01*
X0082153Y0089300D01*
X0084853Y0092000D01*
X0084853Y0096600D01*
X0082153Y0099300D01*
X0084853Y0102000D01*
X0084853Y0106600D01*
X0082153Y0109300D01*
X0084853Y0112000D01*
X0084853Y0116600D01*
X0082153Y0119300D01*
X0084853Y0122000D01*
X0084853Y0126600D01*
X0082153Y0129300D01*
X0084853Y0132000D01*
X0084853Y0136600D01*
X0082153Y0139300D01*
X0084853Y0142000D01*
X0084853Y0146600D01*
X0082153Y0149300D01*
X0084853Y0152000D01*
X0084853Y0154300D01*
X0079300Y0154300D01*
X0079300Y0154300D01*
X0084853Y0154372D02*
X0133747Y0154372D01*
X0134718Y0157570D02*
X0083882Y0157570D01*
X0083622Y0160769D02*
X0134978Y0160769D01*
X0133747Y0163968D02*
X0084853Y0163968D01*
X0084287Y0167166D02*
X0134313Y0167166D01*
X0135383Y0170365D02*
X0083217Y0170365D01*
X0084853Y0173563D02*
X0133747Y0173563D01*
X0133747Y0174300D02*
X0139300Y0174300D01*
X0139300Y0174300D01*
X0133747Y0174300D01*
X0133909Y0176762D02*
X0084691Y0176762D01*
X0084492Y0179960D02*
X0134108Y0179960D01*
X0133747Y0183159D02*
X0084853Y0183159D01*
X0070950Y0183159D02*
X0007459Y0183159D01*
X0007469Y0179960D02*
X0070950Y0179960D01*
X0070950Y0186357D02*
X0064650Y0186357D01*
X0067508Y0189556D02*
X0070950Y0189556D01*
X0068699Y0192754D02*
X0104901Y0192754D01*
X0104901Y0195953D02*
X0068699Y0195953D01*
X0053950Y0186357D02*
X0007449Y0186357D01*
X0007439Y0189556D02*
X0051092Y0189556D01*
X0049901Y0192754D02*
X0007429Y0192754D01*
X0007419Y0195953D02*
X0049901Y0195953D01*
X0044362Y0163968D02*
X0007520Y0163968D01*
X0007531Y0160769D02*
X0047561Y0160769D01*
X0050759Y0157570D02*
X0007541Y0157570D01*
X0007551Y0154372D02*
X0053958Y0154372D01*
X0058719Y0155550D02*
X0059300Y0155550D01*
X0071800Y0143050D01*
X0071800Y0069300D01*
X0074300Y0066800D01*
X0098050Y0066800D01*
X0115550Y0049300D01*
X0119300Y0049300D01*
X0124300Y0043050D02*
X0129300Y0048050D01*
X0129300Y0049300D01*
X0126894Y0064814D02*
X0121706Y0064814D01*
X0116894Y0064814D02*
X0105976Y0064814D01*
X0109175Y0061615D02*
X0113700Y0061615D01*
X0113700Y0058417D02*
X0112373Y0058417D01*
X0131706Y0064814D02*
X0137978Y0064814D01*
X0140622Y0064814D02*
X0145337Y0064814D01*
X0145347Y0061615D02*
X0144402Y0061615D01*
X0144900Y0058417D02*
X0145357Y0058417D01*
X0145368Y0055218D02*
X0143138Y0055218D01*
X0144500Y0052020D02*
X0145378Y0052020D01*
X0145388Y0048821D02*
X0144900Y0048821D01*
X0145439Y0032829D02*
X0035289Y0032829D01*
X0036762Y0029630D02*
X0082829Y0029630D01*
X0088448Y0029630D02*
X0100152Y0029630D01*
X0100202Y0029680D02*
X0098831Y0028310D01*
X0098090Y0026519D01*
X0098090Y0024581D01*
X0098831Y0022790D01*
X0100202Y0021420D01*
X0101992Y0020678D01*
X0103930Y0020678D01*
X0105721Y0021420D01*
X0107091Y0022790D01*
X0107833Y0024581D01*
X0107833Y0026519D01*
X0107091Y0028310D01*
X0105721Y0029680D01*
X0103930Y0030422D01*
X0101992Y0030422D01*
X0100202Y0029680D01*
X0098090Y0026432D02*
X0090510Y0026432D01*
X0089952Y0023233D02*
X0098648Y0023233D01*
X0105771Y0029630D02*
X0145449Y0029630D01*
X0145459Y0026432D02*
X0107833Y0026432D01*
X0107275Y0023233D02*
X0131305Y0023233D01*
X0126742Y0020034D02*
X0024358Y0020034D01*
X0025923Y0016836D02*
X0125177Y0016836D01*
X0124901Y0013637D02*
X0026199Y0013637D01*
X0025374Y0010439D02*
X0125726Y0010439D01*
X0137295Y0023233D02*
X0145469Y0023233D01*
X0145480Y0020034D02*
X0141858Y0020034D01*
X0143423Y0016836D02*
X0145490Y0016836D01*
X0145500Y0013637D02*
X0143699Y0013637D01*
X0142874Y0010439D02*
X0145510Y0010439D01*
X0133747Y0074409D02*
X0084853Y0074409D01*
X0083845Y0077608D02*
X0134755Y0077608D01*
X0134941Y0080806D02*
X0083659Y0080806D01*
X0084853Y0084005D02*
X0133747Y0084005D01*
X0134350Y0087203D02*
X0084250Y0087203D01*
X0083255Y0090402D02*
X0135345Y0090402D01*
X0133747Y0093600D02*
X0084853Y0093600D01*
X0084654Y0096799D02*
X0133946Y0096799D01*
X0135750Y0099997D02*
X0082850Y0099997D01*
X0084853Y0103196D02*
X0133747Y0103196D01*
X0133747Y0106394D02*
X0084853Y0106394D01*
X0082446Y0109593D02*
X0136154Y0109593D01*
X0133747Y0112791D02*
X0084853Y0112791D01*
X0084853Y0115990D02*
X0133747Y0115990D01*
X0136336Y0119188D02*
X0082264Y0119188D01*
X0084853Y0122387D02*
X0133747Y0122387D01*
X0133747Y0125585D02*
X0084853Y0125585D01*
X0082669Y0128784D02*
X0135931Y0128784D01*
X0133765Y0131982D02*
X0084835Y0131982D01*
X0084853Y0135181D02*
X0133747Y0135181D01*
X0135527Y0138379D02*
X0083073Y0138379D01*
X0084431Y0141578D02*
X0134169Y0141578D01*
X0133747Y0144776D02*
X0084853Y0144776D01*
X0083478Y0147975D02*
X0135122Y0147975D01*
X0134574Y0151173D02*
X0084026Y0151173D01*
X0070950Y0151173D02*
X0069616Y0151173D01*
X0028311Y0032829D02*
X0027789Y0032829D01*
X0009242Y0020034D02*
X0007979Y0020034D01*
M02*
