%
M48
M72
T01C0.02362
T02C0.03150
T03C0.03543
T04C0.03937
T05C0.04000
T06C0.12598
%
T01
X33050Y56800
X34300Y94300
X50550Y110550
X34300Y134300
X48050Y150550
X34300Y174300
X14300Y193050
X124300Y29300
X53050Y19300
T02
X31800Y29300
X24300Y29300
X16800Y29300
T03
X85639Y25550
X102961Y25550
T04
X79300Y74300
X79300Y84300
X79300Y94300
X79300Y104300
X79300Y114300
X79300Y124300
X79300Y134300
X79300Y144300
X79300Y154300
X79300Y164300
X79300Y174300
X79300Y184300
X139300Y184300
X139300Y174300
X139300Y164300
X139300Y154300
X139300Y144300
X139300Y134300
X139300Y124300
X139300Y114300
X139300Y104300
X139300Y94300
X139300Y84300
X139300Y74300
T05
X139300Y59300
X139300Y49300
X129300Y49300
X129300Y59300
X119300Y59300
X119300Y49300
T06
X16800Y14300
X134300Y14300
X114300Y194300
X59300Y194300
M30
